<svg viewBox="0 0 783.88 214.63" xmlns="http://www.w3.org/2000/svg" xmlns:xlink="http://www.w3.org/1999/xlink" id="Layer_1" overflow="hidden"><style>
.MsftOfcThm_Background1_Fill_v2 {
 fill:#FFFFFF; 
}
</style>
<defs></defs><g><path d="M21.56 124.58C21.56 127.35 20.35 128.42 17.26 128.42L12.68 128.42C9.65 128.42 7.51 127.71 6.31 126.32 5.19 125.01 4.82 123.01 5.22 120.36L6.55 111.44 1.43 111.44 0.21 119.43 0.21 119.43C-0.45 124.05 0.44 127.92 2.77 130.61 4.98 133.15 8.4 134.5 12.68 134.5L17.26 134.5C23.29 134.5 26.89 130.79 26.89 124.57L26.89 104.42 21.57 104.42 21.57 124.57Z" class="MsftOfcThm_Background1_Fill_v2" stroke-width="0" fill="#FFFFFF"/><rect x="10.83" y="101.94" width="5.73" height="6.09" class="MsftOfcThm_Background1_Fill_v2" stroke-width="0" fill="#FFFFFF"/><path d="M142.91 117.42C142.91 118.51 142.68 119.22 142.2 119.6 141.67 120.03 140.77 120.09 139.44 119.8L135.84 119.04C134.05 118.64 133.74 118.03 133.74 116.81L133.74 105.66 128.41 105.66 128.41 116.83C128.41 116.83 128.46 117.73 128.46 117.73 128.26 118.33 127.69 118.88 125.28 118.88L123.6 118.88C120.54 118.88 119.35 117.8 119.35 115.04L119.35 106.68 114.03 106.68 114.03 115.04C114.03 115.84 114.11 116.7 114.25 117.54 113.18 118.4 111.44 118.89 109.42 118.89L104.99 118.89C103.29 118.89 102.44 118.72 101.97 118.26L102.01 116.26C102.01 107.85 97.19 103.02 88.77 103.02L61.95 103.02 61.95 102.23C61.95 100.06 62.6 98.88 64.54 97.56L73.06 91.57 70.45 87.05 61.88 93.08C58.8 95.2 57.24 98.28 57.24 102.23L57.24 108.45 88.78 108.45C94.25 108.45 96.69 110.86 96.69 116.26L96.69 117.63C96.69 118.63 96.53 118.88 95.03 118.88L40.69 118.88C39.23 118.88 38.63 118.56 38.63 116.56L38.63 86.14 33.31 86.14 33.31 116.56C33.31 121.67 36.21 124.97 40.7 124.97L95.04 124.97C97.85 124.97 99.5 123.78 100.45 122.62 101.51 124.2 103 124.97 105.01 124.97L109.44 124.97C112.42 124.97 114.68 124.01 116.31 122.04 117.99 123.96 120.51 124.97 123.62 124.97L125.3 124.97C127.5 124.97 129.28 124.17 130.47 122.65 131.57 123.81 132.98 124.58 134.68 124.96L138.28 125.72C139.16 125.93 140 126.03 140.8 126.03 142.55 126.03 144.08 125.54 145.31 124.56 147.21 123.06 148.25 120.52 148.25 117.43L148.25 102.92 142.92 102.92 142.92 117.43Z" class="MsftOfcThm_Background1_Fill_v2" stroke-width="0" fill="#FFFFFF"/><path d="M159.37 133.28C159.37 131.36 160.01 130.61 161.64 130.61L164.71 130.61 164.71 127.52 161.64 127.52C158.45 127.52 156.54 129.67 156.54 133.28L156.54 133.46 155.07 133.46 155.07 136.55 165.33 136.55 165.33 133.46 159.38 133.46 159.38 133.28Z" class="MsftOfcThm_Background1_Fill_v2" stroke-width="0" fill="#FFFFFF"/><path d="M173.11 116.96C173.11 117.91 172.83 118.87 170.79 118.87L152.11 118.87 152.11 124.96 170.79 124.96C175.36 124.96 178.43 121.75 178.43 116.96L178.43 85.88 173.1 85.88 173.1 116.96Z" class="MsftOfcThm_Background1_Fill_v2" stroke-width="0" fill="#FFFFFF"/><path d="M166.12 116.42 161.01 92.2 155.81 93.5 160.57 116.42 166.12 116.42Z" class="MsftOfcThm_Background1_Fill_v2" stroke-width="0" fill="#FFFFFF"/><rect x="186.02" y="86.13" width="5.33" height="38.88" class="MsftOfcThm_Background1_Fill_v2" stroke-width="0" fill="#FFFFFF"/><path d="M207.29 102.05 206.98 102.05C200.83 102.05 196.69 106.37 196.69 112.8L196.69 114.22C196.69 120.68 200.95 125.02 207.28 125.02L212.24 125.02 212.24 125.61C212.24 127.4 211.79 127.98 208.62 128.65L198.09 131.02 199.27 136.33 209.8 133.96C213.14 133.28 217.57 131.67 217.57 125.61L217.57 112.8C217.57 106.37 213.44 102.05 207.28 102.05ZM202.03 112.79C202.03 109.56 203.79 107.78 206.99 107.78L207.3 107.78C210.55 107.78 212.26 109.51 212.26 112.79L212.26 119.28 207.3 119.28C203.95 119.28 202.03 117.43 202.03 114.22L202.03 112.8Z" class="MsftOfcThm_Background1_Fill_v2" stroke-width="0" fill="#FFFFFF"/><path d="M271.84 118.87 246.65 118.87C241.95 118.87 239.86 116.9 239.86 112.48L239.86 105.04 234.54 105.04 234.54 112.48C234.54 120.29 239.07 124.95 246.66 124.95L277.18 124.95 277.18 101.88 271.85 101.88 271.85 118.86Z" class="MsftOfcThm_Background1_Fill_v2" stroke-width="0" fill="#FFFFFF"/><rect x="257.76" y="98.28" width="5.38" height="6.09" class="MsftOfcThm_Background1_Fill_v2" stroke-width="0" fill="#FFFFFF"/><rect x="250.64" y="98.28" width="5.43" height="6.09" class="MsftOfcThm_Background1_Fill_v2" stroke-width="0" fill="#FFFFFF"/><rect x="303.11" y="129.55" width="5.38" height="6.09" class="MsftOfcThm_Background1_Fill_v2" stroke-width="0" fill="#FFFFFF"/><rect x="295.99" y="129.55" width="5.43" height="6.09" class="MsftOfcThm_Background1_Fill_v2" stroke-width="0" fill="#FFFFFF"/><path d="M305.69 117.57 305.69 101.89 300.37 101.89 300.37 117.57C300.37 118.58 300.15 118.87 298.66 118.87L290.88 118.87C289.42 118.87 288.82 118.55 288.82 116.55L288.82 86.13 283.49 86.13 283.49 116.55C283.49 121.66 286.39 124.96 290.88 124.96L298.66 124.96C303.85 124.96 305.69 121.14 305.69 117.57Z" class="MsftOfcThm_Background1_Fill_v2" stroke-width="0" fill="#FFFFFF"/><rect x="356.99" y="129.8" width="5.73" height="6.09" class="MsftOfcThm_Background1_Fill_v2" stroke-width="0" fill="#FFFFFF"/><path d="M375.45 116.96C375.45 117.95 375.16 118.87 373.08 118.87L367.03 118.87C363.97 118.87 362.78 117.79 362.78 115.03L362.78 106.67 357.46 106.67 357.46 115.03C357.46 115.9 357.52 116.64 357.63 117.26 356.7 118.3 355.03 118.87 352.9 118.87L348.93 118.87C346.36 118.87 345.06 118.45 344.48 117.42L344.48 85.88 339.15 85.88 339.15 116.96C339.15 117.95 338.86 118.87 336.78 118.87L333.02 118.87C330.85 118.87 329.57 118.55 328.88 117.85 328.96 116.88 328.86 115.79 328.6 114.59L327.23 108.69C326.03 103.54 322.86 100.83 318.07 100.83L312.2 100.83 312.2 106.92 318.07 106.92C320.49 106.92 321.63 107.81 322.13 110.09L323.5 115.99C323.74 116.96 323.68 117.64 323.34 118.08 322.92 118.62 322.01 118.88 320.56 118.88L309.31 118.88 309.31 124.97 320.56 124.97C323.51 124.97 325.89 123.92 327.34 121.99 328.57 123.96 330.48 124.97 333.01 124.97L336.77 124.97C339.5 124.97 341.79 123.81 343.15 121.76 344.35 123.86 346.33 124.97 348.92 124.97L352.89 124.97C355.85 124.97 358.13 124.05 359.85 122.17 361.53 124 363.99 124.97 367.02 124.97L373.07 124.97C377.67 124.97 380.77 121.76 380.77 116.97L380.77 85.89 375.44 85.89 375.44 116.97Z" class="MsftOfcThm_Background1_Fill_v2" stroke-width="0" fill="#FFFFFF"/><rect x="388.31" y="86.13" width="5.33" height="38.88" class="MsftOfcThm_Background1_Fill_v2" stroke-width="0" fill="#FFFFFF"/><rect x="423.34" y="90.4" width="5.38" height="6.09" class="MsftOfcThm_Background1_Fill_v2" stroke-width="0" fill="#FFFFFF"/><rect x="416.22" y="90.4" width="5.43" height="6.09" class="MsftOfcThm_Background1_Fill_v2" stroke-width="0" fill="#FFFFFF"/><path d="M433.74 112.88 433.33 110.54 433.33 110.54C432.14 104.64 429.02 101.89 423.51 101.89L414.86 101.89 412.46 114.24C411.85 117.28 412.37 119.92 413.95 121.85 415.54 123.79 418.14 124.85 421.26 124.85L424.41 124.85C427.52 124.85 430.18 123.71 431.9 121.65 433.73 119.44 434.38 116.33 433.73 112.87ZM427.78 118.14C427.07 119 425.95 119.43 424.42 119.43L421.27 119.43C419.69 119.43 418.64 119.09 418.07 118.4 417.52 117.74 417.39 116.72 417.67 115.31L419.24 107.33 423.51 107.33C426.4 107.33 427.37 108.25 428.02 111.6L428.43 113.84C428.79 115.71 428.57 117.2 427.78 118.15Z" class="MsftOfcThm_Background1_Fill_v2" stroke-width="0" fill="#FFFFFF"/><path d="M440.98 125.09C440.98 127.36 440.16 128.56 438.07 129.37L433.4 131.18 435.4 136.25 439.97 134.43C444.18 132.8 446.31 129.66 446.31 125.08L446.31 103.4 440.98 103.4 440.98 125.08Z" class="MsftOfcThm_Background1_Fill_v2" stroke-width="0" fill="#FFFFFF"/><rect x="452.32" y="86.13" width="5.33" height="38.88" class="MsftOfcThm_Background1_Fill_v2" stroke-width="0" fill="#FFFFFF"/><rect x="466.15" y="91.57" width="5.73" height="6.09" class="MsftOfcThm_Background1_Fill_v2" stroke-width="0" fill="#FFFFFF"/><path d="M466.76 125.09C466.76 127.36 465.94 128.56 463.85 129.37L459.18 131.18 461.18 136.25 465.75 134.43C469.96 132.8 472.09 129.66 472.09 125.08L472.09 103.4 466.76 103.4 466.76 125.08Z" class="MsftOfcThm_Background1_Fill_v2" stroke-width="0" fill="#FFFFFF"/><path d="M486.65 102.05 486.35 102.05C480.2 102.05 476.06 106.37 476.06 112.8L476.06 114.22C476.06 120.68 480.32 125.02 486.65 125.02L491.61 125.02 491.61 125.61C491.61 127.4 491.16 127.98 487.99 128.65L477.46 131.02 478.64 136.33 489.17 133.96C492.51 133.28 496.94 131.67 496.94 125.61L496.94 112.8C496.94 106.37 492.81 102.05 486.65 102.05ZM481.39 112.79C481.39 109.56 483.15 107.78 486.35 107.78L486.65 107.78C489.9 107.78 491.61 109.51 491.61 112.79L491.61 119.28 486.65 119.28C483.3 119.28 481.38 117.43 481.38 114.22L481.38 112.8Z" class="MsftOfcThm_Background1_Fill_v2" stroke-width="0" fill="#FFFFFF"/></g><path d="M667.23 214.63C602.83 214.63 550.51 162.16 550.51 97.91L551.46 81.83 569.72 81.83 569.72 57.31 571.76 57.31 571.76 53.45 580.49 53.45 583.04 57.67 587.62 57.67 587.62 88.82 591.26 88.82 591.26 93.26 592.64 93.26 592.64 68.23 607.27 68.23 607.27 74.63 612.07 74.63 612.07 86.71 620.29 86.71 620.29 74.99 631.35 74.99 635.21 80.01 635.21 93.33 657.77 93.33 657.77 96.68 631.79 96.68 631.79 81.11 629.61 78.27 623.71 78.27 623.71 93.99 619.13 93.99 619.13 89.99 608.8 89.99 608.8 77.91 604 77.91 604 71.43 596.07 71.43 596.07 96.54 587.99 96.54 587.99 92.1 584.35 92.1 584.35 60.95 581.29 60.95 578.74 56.73 575.25 56.73 575.25 60.59 573.21 60.59 573.21 85.19 554.8 85.19 554.14 98.07C554.14 160.43 605.01 211.3 667.52 211.3 730.03 211.3 780.75 160.72 780.9 98.51L769.04 98.51 769.04 78.64 762.05 78.64 762.05 68.38 754.12 68.38 754.12 63.94 744.3 63.94 744.3 67 742.26 69.18 742.26 87.59 732.29 87.59 732.29 73.98 729.74 71.14 724.5 71.14 724.5 66.48 718.39 66.48 718.39 96.61 708.35 96.61 708.35 85.4 699.33 85.4 699.33 96.61 675.46 96.61 675.46 93.26 695.91 93.26 695.91 82.05 711.63 82.05 711.63 93.26 714.98 93.26 714.98 63.13 728.01 63.13 728.01 67.79 731.65 67.79 735.94 72.59 735.94 84.31 739 84.31 739 67.86 741.04 65.68 741.04 60.59 757.56 60.59 757.56 65.03 765.49 65.03 765.49 75.29 772.33 75.29 772.33 95.16 783.9 95.16 783.9 98.14C784.05 162.4 731.58 214.65 667.25 214.65" class="MsftOfcThm_Background1_Fill_v2" stroke-width="0" fill="#FFFFFF"/><path d="M623.06 167.76C622.11 167.76 621.17 167.98 620.22 168.42 617.82 170.17 617.02 173.51 618.47 176.06 619.13 177.3 620.36 178.1 622.11 178.61 622.69 178.61 623.13 178.76 623.86 178.76 630.99 178.76 637.32 174.32 642.56 170.17L643.51 169.37 644.16 170.39C646.56 174.39 650.78 177.38 655.22 178.18L656.17 178.18C659.23 178.18 662.79 176.72 663.45 173.38 663.89 170.98 662.43 168.29 660.1 167.19 658.72 166.61 656.9 166.61 654.42 167.77 653.84 167.99 653.62 168.72 653.4 169.81 653.18 170.83 652.75 172.65 651 172.65 649.62 172.65 647.8 171.63 647 170.25 646.56 169.45 646.56 168.65 647 167.99 650.64 162.53 655.44 158.53 660.03 154.96 662.21 153.21 664.32 151.47 666.36 149.57L667.16 148.92 667.96 149.57C670 151.46 672.18 153.21 674.29 154.81 679.09 158.67 684.26 162.6 687.31 168.49 687.46 168.71 687.75 169.29 687.46 169.87 687.02 170.89 685.06 172.71 683.6 172.85 682.65 173 682.14 172.71 681.85 172.41 681.27 171.83 681.27 171.03 681.27 170.52 681.27 170.08 681.27 169.57 681.12 169.28 680.46 167.9 678.94 167.53 677.48 167.1 674.79 166.44 671.66 168.55 671 171.54 670.78 172.92 671 174.23 671.65 175.4 673.25 177.44 675.29 178.46 677.69 178.46 682.49 178.46 687.73 174.46 690.21 170.53L690.87 169.51 691.82 170.31C696.62 174.17 703.03 178.53 709.29 178.53 711.04 178.53 712.64 178.31 714.31 177.58 715.33 177 716.35 175.98 716.71 174.6 717.15 173.14 716.86 171.62 716.05 170.38 715.03 168.78 713.21 167.98 711.39 167.98 709.57 167.98 707.61 168.93 706.73 170.38L706.15 171.18 705.35 170.96C702.15 169.72 698.07 167.9 696.11 164.34 695.31 163.1 695.67 161.36 696.33 160.12 696.99 158.88 697.71 158.66 698.22 158.66 698.44 158.66 698.8 158.66 698.87 158.8 700.47 159.75 702.07 160.25 703.53 160.25 706.22 160.25 708.33 158.65 708.99 155.96 709.21 154.58 708.99 153.27 708.19 151.96 707.39 150.72 706.01 149.78 704.55 149.41L703.6 149.41C701.05 149.41 698.51 150.65 696.9 152.61 695.88 153.85 695.44 155.45 694.86 157.05 694.42 158.51 693.91 159.89 693.11 161.27L692.46 162.29 672.3 143.59 673.1 142.79C694.86 121.83 724.19 114.41 748.13 112.23 745.07 112.01 741.94 111.79 738.89 111.79 712.4 111.79 687.44 120.96 668.52 137.48L667.86 138.06 667.21 137.48C657.39 130.2 644.07 121.18 628.79 116.74 614.53 112.52 600.26 110.92 586.58 112.16 610.52 114.34 639.85 121.69 661.75 142.8L662.55 143.6 642.39 162.3 641.73 161.28C640.78 159.9 640.35 158.44 639.98 157.06 639.4 155.46 639.03 154 637.94 152.62 636.48 151.16 634.96 150.36 632.85 149.56 629.65 148.91 626.66 150.8 626.01 154 625.57 156.4 627.03 159.02 629.36 160.19 629.58 160.33 630.16 160.33 630.74 160.33 632.19 160.33 633.72 159.67 635.18 159.09L635.84 158.87C636.06 158.72 636.28 158.72 636.49 158.72 637.44 158.72 638.24 159.38 638.75 160.32 639.41 161.56 639.7 163.16 638.9 164.32 636.86 167.81 632.86 169.56 629.66 170.94L628.86 171.16 628.28 170.5C626.82 168.75 624.93 167.73 623.04 167.73M623.86 181.01C623.2 181.01 622.48 181.01 621.68 180.86 618.99 180.21 617.39 178.97 616.44 177.22 614.4 173.73 615.49 169.14 618.99 166.59 622.48 164.55 626.63 165.57 629.25 168.34 631.94 167.32 635.14 165.65 636.67 162.95 636.82 162.8 636.82 162.29 636.67 161.71 636.52 161.13 636.23 160.76 636.09 160.69L635.51 160.91C633.91 161.57 632.16 162.29 630.12 162.29 629.32 162.29 628.67 162.14 627.94 161.85 624.74 160.25 622.85 156.61 623.28 153.26 624.08 149.4 627.14 146.78 630.92 146.78 631.58 146.78 632.3 146.93 632.81 147L632.96 147C635.36 147.95 637.18 148.89 639 150.78 640.38 152.38 641.04 154.27 641.55 156.02 641.77 156.82 642.13 157.77 642.5 158.42L658.95 143.21C633.92 119.85 599.42 114.03 574.61 113.37L564.35 113.15 574.25 111.26C591.71 107.91 610.27 108.86 628.9 114.32 644.11 118.76 657.43 127.64 667.32 134.84 686.6 118.32 711.71 109.15 738.49 109.15 745.62 109.15 752.75 109.81 759.59 111.19L769.85 113.08 759.37 113.3C734.63 113.96 700.06 119.78 675.03 143.14L691.48 158.35C691.92 157.55 692.06 156.75 692.43 155.95 693.01 154.2 693.45 152.31 694.83 150.71 697.09 147.87 701.02 146.27 704.65 146.85 706.69 147.43 708.51 148.6 709.67 150.2 710.91 151.95 711.27 154.06 710.91 156.02 709.96 159.66 707.05 161.92 703.27 161.92 701.52 161.92 699.63 161.34 698.03 160.46 697.81 161.04 697.45 162.06 697.81 162.5 699.26 165.19 702.47 166.79 705.23 167.89 706.69 166.14 708.87 165.2 711.27 165.2 713.96 165.2 716.36 166.58 717.89 168.69 719.13 170.44 719.49 172.55 718.84 174.73 718.26 176.77 716.95 178.37 715.2 179.02 713.31 179.82 711.42 180.26 709.38 180.26 702.76 180.26 696.35 176.04 691.48 172.33 688.42 176.33 683.04 180.26 677.8 180.26 674.74 180.26 671.9 178.88 669.87 176.26 668.63 174.51 668.27 172.4 668.85 170.44 669.8 166.8 673.07 164.11 676.35 164.11 676.93 164.11 677.37 164.26 677.95 164.33 679.84 164.77 681.95 165.28 683.04 167.53 683.62 168.19 683.48 169.28 683.48 169.93 684.06 169.78 684.86 169.13 685.23 168.55 682.25 163.16 677.73 159.67 672.86 155.74 670.97 154.28 669 152.76 667.18 151.08 665.29 152.83 663.4 154.28 661.5 155.88 656.84 159.66 652.33 163.3 648.98 168.54 649.12 168.98 650.36 169.78 651.02 169.92 651.17 169.7 651.24 169.12 651.46 168.9 651.68 167.66 652.12 165.92 653.86 165.26 656.84 164.02 659.1 163.88 661.28 164.82 664.48 166.42 666.37 170.06 665.86 173.41 664.84 178.5 659.38 180.54 655.02 180.03 650.36 179.23 645.85 176.25 643.01 172.24 637.62 176.82 631.29 180.97 623.87 180.97" class="MsftOfcThm_Background1_Fill_v2" stroke-width="0" fill="#FFFFFF"/><path d="M709.8 30.45 712.64 32.63 710.6 29.79C697.57 11.09 682.87 10.51 678.22 10.94 679.16 9.99 680.77 8.39 683.02 7.59L684.62 6.93 683.02 6.49C679.53 5.54 674.58 4.74 670.36 8.24 669.7 4.75 668.1 0.82 667.16 0.16 666.94 0.01 666.58-0.06 666.51 0.01 665.49 0.23 663.45 3.21 662.51 8.23 659.53 5.83 654.43 4.74 650.28 6.85L649.04 7.51 650.42 7.95C650.42 7.95 653.26 8.9 654.86 11.3 635.79 11.74 628.88 21.12 623.28 28.62 622.84 29.2 622.48 29.64 622.04 30.22L622.84 31.02C630.63 23.74 642.71 21.34 648.53 22.8 641.54 25.64 628.23 33.64 623.64 56.71L623.06 59.69 624.66 57.14C632.3 45.06 639.72 37.78 648.6 33.78 642.78 42.51 634.99 57.43 638.12 70.89L638.56 73.29 639.14 70.74C642.12 57.42 649.91 46.44 655 41.41 650.78 56.26 652.45 70.45 654.56 76.12L655.51 78.67 655.66 75.98C656.46 63.75 659.88 50.66 662.35 44.4L664.1 56.48 663.08 56.7 663.88 73.37 662.57 73.37 663.95 90.47 662.49 90.91 662.49 91.49C662.49 91.64 663.51 102.26 663.95 108.3 661.91 109.32 659.95 111.36 659.29 112.08L659.29 113.1 674.21 113.1 674.21 111.94C672.75 110.05 670.42 108.88 669.62 108.3L671.22 90.4 669.62 90.55 670.64 72.94 669.4 73.09 670.2 56.42 668.82 56.42C669.04 54.97 669.62 50.96 670.27 44.19 673.47 49.65 676.31 61.15 677.77 75.34L678.21 79.63 678.87 75.41C681.71 58.09 679.02 44.77 677.85 40.19 682.29 44.48 691.17 59.69 694.15 70.54L694.95 73.74 695.17 70.39C696.19 55.91 692.91 44.85 683.74 32.84 687.52 33.86 692.04 37.06 696.91 41.86 701.49 46.3 705.79 52.12 708.19 56.49L709.57 59.04 709.35 56.06C707.6 38.31 694.29 25.79 684.75 22.08 693.34 20.92 705.93 27.61 709.78 30.45" class="MsftOfcThm_Background1_Fill_v2" stroke-width="0" fill="#FFFFFF"/><g><path d="M4.32 161.52 4.65 161.52 3.81 177.6 4.44089e-16 177.45 0.99 158.48 4.32 158.48 4.32 161.53ZM17.98 161.52 17.6 161.52 12.8 177.52 9.04 177.52 4.24 161.52 3.88 161.52 3.88 158.47 6.52 158.47 11.32 174.47 10.51 174.47 15.31 158.47 17.98 158.47 17.98 161.52ZM18.03 177.59 17.17 161.51 17.55 161.51 17.55 158.46 20.83 158.46 21.85 177.43 18.04 177.58Z" class="MsftOfcThm_Background1_Fill_v2" stroke-width="0" fill="#FFFFFF"/><path d="M25.73 160.46C25.31 160.1 25.1 159.64 25.1 159.1L25.1 159.02C25.1 158.48 25.31 158.03 25.73 157.66 26.15 157.3 26.67 157.11 27.28 157.11 27.89 157.11 28.41 157.29 28.83 157.66 29.25 158.02 29.46 158.48 29.46 159.02L29.46 159.1C29.46 159.64 29.25 160.09 28.83 160.46 28.41 160.82 27.89 161.01 27.28 161.01 26.67 161.01 26.15 160.83 25.73 160.46ZM25.37 177.52 25.37 163.3 29.18 163.3 29.18 177.52 25.37 177.52Z" class="MsftOfcThm_Background1_Fill_v2" stroke-width="0" fill="#FFFFFF"/><path d="M32.61 177.52 32.61 163.3 36.42 163.3 36.42 177.52 32.61 177.52ZM35.83 167.46C36.16 166.31 36.74 165.31 37.57 164.45 38.4 163.59 39.52 163.17 40.92 163.17L41 163.17 39.98 166.47 39.9 166.47C38.99 166.47 38.26 166.69 37.73 167.13 37.2 167.57 36.83 168.11 36.64 168.74 36.45 169.37 36.35 170.02 36.35 170.68L35.33 170.68C35.33 169.68 35.5 168.61 35.83 167.45ZM40.97 163.17 41.05 163.17C41.98 163.17 42.81 163.42 43.55 163.92 44.29 164.42 44.87 165.16 45.3 166.14 45.73 167.12 45.95 168.3 45.95 169.67L45.95 177.52 42.14 177.52 42.14 169.67C42.14 168.64 41.97 167.85 41.63 167.3 41.29 166.75 40.76 166.47 40.03 166.47L39.95 166.47 40.97 163.17Z" class="MsftOfcThm_Background1_Fill_v2" stroke-width="0" fill="#FFFFFF"/><path d="M49.61 160.46C49.19 160.1 48.98 159.64 48.98 159.1L48.98 159.02C48.98 158.48 49.19 158.03 49.61 157.66 50.03 157.3 50.55 157.11 51.16 157.11 51.77 157.11 52.29 157.29 52.71 157.66 53.13 158.02 53.34 158.48 53.34 159.02L53.34 159.1C53.34 159.64 53.13 160.09 52.71 160.46 52.29 160.82 51.77 161.01 51.16 161.01 50.55 161.01 50.03 160.83 49.61 160.46ZM49.25 177.52 49.25 163.3 53.06 163.3 53.06 177.52 49.25 177.52Z" class="MsftOfcThm_Background1_Fill_v2" stroke-width="0" fill="#FFFFFF"/><path d="M61.95 177.64 61.7 177.64C60.14 177.64 58.81 177.24 57.71 176.43 56.61 175.63 55.98 174.43 55.83 172.84L58.9 172.84C59.02 173.55 59.31 174.06 59.76 174.38 60.22 174.69 60.86 174.85 61.69 174.85L61.94 174.85 61.94 177.64ZM61.67 165.96 61.64 165.96C61.05 165.96 60.56 166.07 60.18 166.29 59.8 166.51 59.54 166.77 59.39 167.08 59.25 167.38 59.23 167.66 59.33 167.92 59.47 168.24 59.75 168.47 60.18 168.59 60.61 168.72 61.25 168.84 62.1 168.96 63.01 169.1 63.76 169.24 64.35 169.38 64.94 169.52 65.49 169.77 66.03 170.12 66.57 170.47 66.97 170.95 67.26 171.58 67.7 172.53 67.76 173.47 67.44 174.41 67.12 175.35 66.48 176.12 65.51 176.73 64.54 177.34 63.38 177.64 62.03 177.64L61.95 177.64 61.95 174.85 62.03 174.85C62.61 174.85 63.09 174.74 63.48 174.51 63.87 174.28 64.13 174 64.27 173.67 64.41 173.34 64.41 173.03 64.27 172.74 64.1 172.37 63.78 172.11 63.3 171.95 62.83 171.8 62.12 171.65 61.19 171.52 60.33 171.4 59.61 171.28 59.04 171.14 58.47 171 57.93 170.76 57.43 170.42 56.93 170.08 56.54 169.59 56.29 168.99 55.92 168.06 55.91 167.14 56.26 166.23 56.62 165.32 57.27 164.59 58.23 164.02 59.19 163.45 60.33 163.17 61.65 163.17L61.68 163.17 61.68 165.96ZM63.37 166.37C62.93 166.1 62.37 165.96 61.69 165.96L61.64 165.96 61.64 163.17 61.69 163.17C62.6 163.17 63.47 163.34 64.28 163.67 65.09 164 65.77 164.5 66.31 165.16 66.85 165.82 67.17 166.62 67.28 167.57L64.21 167.57C64.09 167.04 63.81 166.65 63.37 166.38Z" class="MsftOfcThm_Background1_Fill_v2" stroke-width="0" fill="#FFFFFF"/><path d="M78.64 166.34 69.34 166.34 69.34 163.55 78.64 163.55 78.64 166.34ZM78.64 177.52 76.46 177.52C74.99 177.52 73.81 177.15 72.94 176.4 72.07 175.66 71.63 174.55 71.63 173.07L71.63 158.47 75.44 158.47 75.44 173.07C75.44 173.44 75.46 173.7 75.49 173.85 75.52 173.99 75.61 174.09 75.74 174.14 75.88 174.19 76.11 174.22 76.45 174.22L78.63 174.22 78.63 177.52Z" class="MsftOfcThm_Background1_Fill_v2" stroke-width="0" fill="#FFFFFF"/><path d="M81.31 177.52 81.31 163.3 85.12 163.3 85.12 177.52 81.31 177.52ZM86.1 164.84C87.19 163.67 88.63 163.09 90.41 163.09L90.41 166.65C88.63 166.65 87.31 166.97 86.45 167.6 85.59 168.23 85.12 169.16 85.05 170.38L84.29 170.23C84.41 167.81 85.01 166.01 86.11 164.84Z" class="MsftOfcThm_Background1_Fill_v2" stroke-width="0" fill="#FFFFFF"/><path d="M91.52 163.29 95.58 163.29 101.5 176.88 98.68 178.99 91.52 163.29ZM107.9 163.29 99.77 183.46 95.76 183.46 103.89 163.29 107.9 163.29Z" class="MsftOfcThm_Background1_Fill_v2" stroke-width="0" fill="#FFFFFF"/><path d="M128.5 174.08C127.84 175.19 126.95 176.06 125.82 176.7 124.69 177.33 123.46 177.65 122.12 177.65 120.78 177.65 119.53 177.33 118.41 176.7 117.29 176.07 116.4 175.2 115.74 174.1 115.08 173 114.75 171.77 114.75 170.42 114.75 169.07 115.08 167.84 115.74 166.74 116.4 165.64 117.29 164.77 118.41 164.14 119.53 163.51 120.76 163.19 122.12 163.19 123.48 163.19 124.69 163.51 125.82 164.14 126.95 164.77 127.84 165.65 128.5 166.76 129.16 167.87 129.49 169.09 129.49 170.43 129.49 171.77 129.16 172.99 128.5 174.1ZM125.19 168.37C124.86 167.78 124.42 167.31 123.88 166.97 123.34 166.63 122.75 166.46 122.13 166.46 121.51 166.46 120.91 166.63 120.36 166.96 119.81 167.29 119.37 167.76 119.05 168.36 118.73 168.96 118.57 169.64 118.57 170.4 118.57 171.16 118.73 171.84 119.05 172.44 119.37 173.04 119.81 173.51 120.36 173.84 120.91 174.17 121.5 174.34 122.13 174.34 122.76 174.34 123.34 174.17 123.88 173.83 124.42 173.49 124.86 173.03 125.19 172.43 125.52 171.84 125.69 171.16 125.69 170.4 125.69 169.64 125.52 168.96 125.19 168.37Z" class="MsftOfcThm_Background1_Fill_v2" stroke-width="0" fill="#FFFFFF"/><path d="M139.83 166.34 130.56 166.34 130.56 163.55 139.83 163.55 139.83 166.34ZM132.74 177.52 132.74 162.89C132.74 161.38 133.23 160.18 134.21 159.28 135.19 158.38 136.5 157.93 138.15 157.93L138.23 157.93 138.23 160.98 138.15 160.98C137.59 160.98 137.18 161.12 136.93 161.41 136.68 161.7 136.55 162.19 136.55 162.88L136.55 177.51 132.74 177.51ZM138.2 157.93 138.23 157.93C138.84 157.93 139.37 158 139.83 158.13L139.83 161.18C139.73 161.15 139.64 161.13 139.58 161.13 139.11 161.03 138.66 160.98 138.23 160.98L138.2 160.98 138.2 157.93Z" class="MsftOfcThm_Background1_Fill_v2" stroke-width="0" fill="#FFFFFF"/><path d="M152.05 161.52 152.38 161.52 151.54 177.6 147.73 177.45 148.72 158.48 152.05 158.48 152.05 161.53ZM165.71 161.52 165.33 161.52 160.53 177.52 156.77 177.52 151.97 161.52 151.61 161.52 151.61 158.47 154.25 158.47 159.05 174.47 158.24 174.47 163.04 158.47 165.71 158.47 165.71 161.52ZM165.76 177.59 164.9 161.51 165.28 161.51 165.28 158.46 168.56 158.46 169.58 177.43 165.77 177.58Z" class="MsftOfcThm_Background1_Fill_v2" stroke-width="0" fill="#FFFFFF"/><path d="M177.83 177.64 177.75 177.64C176.82 177.64 175.99 177.39 175.25 176.89 174.51 176.39 173.93 175.65 173.5 174.67 173.07 173.69 172.85 172.51 172.85 171.14L172.85 163.29 176.66 163.29 176.66 171.14C176.66 172.17 176.83 172.96 177.17 173.51 177.51 174.06 178.04 174.34 178.77 174.34L178.85 174.34 177.83 177.64ZM182.97 173.35C182.64 174.5 182.06 175.51 181.23 176.36 180.4 177.22 179.28 177.64 177.88 177.64L177.8 177.64 178.82 174.34 178.9 174.34C179.81 174.34 180.54 174.12 181.07 173.68 181.6 173.24 181.97 172.7 182.16 172.07 182.35 171.44 182.45 170.79 182.45 170.13L183.47 170.13C183.47 171.13 183.3 172.2 182.97 173.36ZM186.19 163.29 186.19 177.51 182.38 177.51 182.38 163.29 186.19 163.29Z" class="MsftOfcThm_Background1_Fill_v2" stroke-width="0" fill="#FFFFFF"/><path d="M189.49 177.52 189.49 163.3 193.3 163.3 193.3 177.52 189.49 177.52ZM192.7 167.46C193.03 166.31 193.61 165.31 194.44 164.45 195.27 163.59 196.39 163.17 197.79 163.17L197.87 163.17 196.85 166.47 196.77 166.47C195.86 166.47 195.13 166.69 194.6 167.13 194.07 167.57 193.7 168.11 193.51 168.74 193.32 169.37 193.22 170.02 193.22 170.68L192.2 170.68C192.2 169.68 192.37 168.61 192.7 167.45ZM197.84 163.17 197.92 163.17C198.85 163.17 199.68 163.42 200.42 163.92 201.16 164.42 201.74 165.16 202.17 166.14 202.6 167.12 202.82 168.3 202.82 169.67L202.82 177.52 199.01 177.52 199.01 169.67C199.01 168.64 198.84 167.85 198.5 167.3 198.16 166.75 197.63 166.47 196.9 166.47L196.82 166.47 197.84 163.17Z" class="MsftOfcThm_Background1_Fill_v2" stroke-width="0" fill="#FFFFFF"/><path d="M206.48 160.46C206.06 160.1 205.85 159.64 205.85 159.1L205.85 159.02C205.85 158.48 206.06 158.03 206.48 157.66 206.9 157.3 207.42 157.11 208.03 157.11 208.64 157.11 209.16 157.29 209.58 157.66 210 158.02 210.21 158.48 210.21 159.02L210.21 159.1C210.21 159.64 210 160.09 209.58 160.46 209.16 160.82 208.64 161.01 208.03 161.01 207.42 161.01 206.9 160.83 206.48 160.46ZM206.12 177.52 206.12 163.3 209.93 163.3 209.93 177.52 206.12 177.52Z" class="MsftOfcThm_Background1_Fill_v2" stroke-width="0" fill="#FFFFFF"/><path d="M224.81 175.15C224.16 175.98 223.37 176.6 222.44 177.02 221.51 177.43 220.58 177.64 219.65 177.64L219.32 177.64C218.02 177.64 216.87 177.37 215.88 176.83 214.89 176.29 214.14 175.59 213.63 174.72 212.94 173.57 212.56 172.28 212.5 170.85 212.44 169.42 212.65 168.13 213.12 166.98 213.56 165.86 214.32 164.95 215.39 164.24 216.47 163.53 217.78 163.17 219.34 163.17L219.64 163.17C220.57 163.17 221.5 163.38 222.43 163.79 223.36 164.21 224.15 164.83 224.8 165.66 225.45 166.49 225.84 167.5 225.96 168.68L222.12 168.68C221.98 167.92 221.67 167.36 221.17 167 220.67 166.64 220.16 166.47 219.63 166.47L219.33 166.47C218.6 166.47 218.03 166.61 217.62 166.88 217.2 167.15 216.87 167.61 216.62 168.25 216.37 168.89 216.26 169.71 216.3 170.7 216.34 171.69 216.53 172.46 216.87 173 217.16 173.49 217.49 173.84 217.86 174.04 218.23 174.24 218.71 174.35 219.31 174.35L219.64 174.35C220.16 174.35 220.68 174.17 221.18 173.82 221.68 173.46 222 172.91 222.13 172.14L225.97 172.14C225.85 173.33 225.47 174.33 224.81 175.16Z" class="MsftOfcThm_Background1_Fill_v2" stroke-width="0" fill="#FFFFFF"/><path d="M228.98 160.46C228.56 160.1 228.35 159.64 228.35 159.1L228.35 159.02C228.35 158.48 228.56 158.03 228.98 157.66 229.4 157.3 229.92 157.11 230.53 157.11 231.14 157.11 231.66 157.29 232.08 157.66 232.5 158.02 232.71 158.48 232.71 159.02L232.71 159.1C232.71 159.64 232.5 160.09 232.08 160.46 231.66 160.82 231.14 161.01 230.53 161.01 229.92 161.01 229.4 160.83 228.98 160.46ZM228.63 177.52 228.63 163.3 232.44 163.3 232.44 177.52 228.63 177.52Z" class="MsftOfcThm_Background1_Fill_v2" stroke-width="0" fill="#FFFFFF"/><path d="M235.89 163.29 239.7 163.29 239.7 183.36 235.89 183.36 235.89 163.29ZM242.75 174.6 242.83 174.6 243.59 177.65 243.51 177.65C241.88 177.65 240.67 177.07 239.86 175.92 239.06 174.77 238.58 173.13 238.43 171.02L239.6 170.77C239.63 171.95 239.9 172.89 240.41 173.58 240.92 174.27 241.7 174.61 242.75 174.61ZM243.67 163.17 243.75 163.17 242.99 166.22 242.91 166.22C241.86 166.22 241.06 166.52 240.5 167.12 239.94 167.72 239.65 168.5 239.61 169.47L238.54 169.27C238.66 167.34 239.15 165.84 240.01 164.77 240.87 163.7 242.09 163.17 243.67 163.17ZM243.72 163.17 243.77 163.17C244.82 163.17 245.8 163.45 246.7 164.02 247.61 164.59 248.33 165.4 248.88 166.47 249.43 167.54 249.71 168.78 249.71 170.2 249.71 171.62 249.46 172.97 248.95 174.1 248.44 175.23 247.73 176.1 246.8 176.72 245.88 177.34 244.82 177.65 243.64 177.65L243.56 177.65 242.8 174.6 242.88 174.6C243.85 174.6 244.59 174.22 245.12 173.46 245.64 172.7 245.91 171.66 245.91 170.34 245.91 169.02 245.64 168.07 245.11 167.33 244.58 166.59 243.88 166.23 243.01 166.23L242.96 166.23 243.72 163.18Z" class="MsftOfcThm_Background1_Fill_v2" stroke-width="0" fill="#FFFFFF"/><path d="M254.8 176.79C253.89 176.22 253.17 175.41 252.62 174.34 252.07 173.27 251.79 172.03 251.79 170.61 251.79 169.19 252.04 167.84 252.55 166.71 253.06 165.58 253.77 164.71 254.7 164.09 255.62 163.47 256.68 163.16 257.86 163.16L257.94 163.16 258.7 166.21 258.62 166.21C257.65 166.21 256.91 166.59 256.38 167.35 255.85 168.11 255.59 169.15 255.59 170.47 255.59 171.79 255.86 172.74 256.39 173.48 256.92 174.22 257.62 174.58 258.49 174.58L258.54 174.58 257.78 177.63 257.73 177.63C256.68 177.63 255.7 177.35 254.8 176.78ZM258.53 174.6 258.61 174.6C259.66 174.6 260.46 174.3 261.02 173.7 261.58 173.1 261.87 172.32 261.91 171.35L262.98 171.55C262.86 173.48 262.37 174.98 261.51 176.05 260.65 177.12 259.43 177.65 257.85 177.65L257.77 177.65 258.53 174.6ZM257.92 163.17 258 163.17C259.63 163.17 260.84 163.75 261.65 164.9 262.45 166.05 262.93 167.69 263.08 169.8L261.91 170.05C261.88 168.87 261.61 167.93 261.1 167.24 260.59 166.55 259.81 166.21 258.76 166.21L258.68 166.21 257.92 163.16ZM261.8 177.52 261.8 163.3 265.61 163.3 265.61 177.52 261.8 177.52Z" class="MsftOfcThm_Background1_Fill_v2" stroke-width="0" fill="#FFFFFF"/><path d="M269.99 176.29C269.19 175.47 268.78 174.32 268.78 172.85L268.78 157.46 272.59 157.46 272.59 172.85C272.59 173.36 272.62 173.7 272.67 173.87 272.72 174.04 272.83 174.14 273 174.17 273.17 174.2 273.54 174.22 274.12 174.22L274.12 177.52C272.17 177.52 270.8 177.11 269.99 176.29Z" class="MsftOfcThm_Background1_Fill_v2" stroke-width="0" fill="#FFFFFF"/><path d="M276.89 160.46C276.47 160.1 276.26 159.64 276.26 159.1L276.26 159.02C276.26 158.48 276.47 158.03 276.89 157.66 277.31 157.3 277.83 157.11 278.44 157.11 279.05 157.11 279.57 157.29 279.99 157.66 280.41 158.02 280.62 158.48 280.62 159.02L280.62 159.1C280.62 159.64 280.41 160.09 279.99 160.46 279.57 160.82 279.05 161.01 278.44 161.01 277.83 161.01 277.31 160.83 276.89 160.46ZM276.53 177.52 276.53 163.3 280.34 163.3 280.34 177.52 276.53 177.52Z" class="MsftOfcThm_Background1_Fill_v2" stroke-width="0" fill="#FFFFFF"/><path d="M291.95 166.34 282.65 166.34 282.65 163.55 291.95 163.55 291.95 166.34ZM291.95 177.52 289.77 177.52C288.3 177.52 287.12 177.15 286.25 176.4 285.38 175.66 284.94 174.55 284.94 173.07L284.94 158.47 288.75 158.47 288.75 173.07C288.75 173.44 288.77 173.7 288.8 173.85 288.83 173.99 288.92 174.09 289.05 174.14 289.19 174.19 289.42 174.22 289.76 174.22L291.94 174.22 291.94 177.52Z" class="MsftOfcThm_Background1_Fill_v2" stroke-width="0" fill="#FFFFFF"/><path d="M295.1 160.46C294.68 160.1 294.47 159.64 294.47 159.1L294.47 159.02C294.47 158.48 294.68 158.03 295.1 157.66 295.52 157.3 296.04 157.11 296.65 157.11 297.26 157.11 297.78 157.29 298.2 157.66 298.62 158.02 298.83 158.48 298.83 159.02L298.83 159.1C298.83 159.64 298.62 160.09 298.2 160.46 297.78 160.82 297.26 161.01 296.65 161.01 296.04 161.01 295.52 160.83 295.1 160.46ZM294.75 177.52 294.75 163.3 298.56 163.3 298.56 177.52 294.75 177.52Z" class="MsftOfcThm_Background1_Fill_v2" stroke-width="0" fill="#FFFFFF"/><path d="M308.36 177.64 308.26 177.64C306.87 177.64 305.64 177.36 304.56 176.79 303.48 176.22 302.65 175.41 302.05 174.34 301.45 173.27 301.15 172.03 301.15 170.61 301.15 169.34 301.4 168.14 301.91 167 302.42 165.87 303.21 164.94 304.27 164.23 305.33 163.52 306.66 163.16 308.23 163.16 309.8 163.16 311.16 163.52 312.15 164.23 313.14 164.94 313.85 165.85 314.27 166.95 314.69 168.05 314.9 169.23 314.9 170.48L314.9 171.5 311.34 171.5 311.34 170.48C311.34 169.06 311.09 167.95 310.6 167.15 310.11 166.35 309.31 165.96 308.21 165.96 307.43 165.96 306.78 166.16 306.25 166.57 305.72 166.98 305.33 167.53 305.07 168.23 304.81 168.93 304.68 169.72 304.68 170.61 304.68 171.5 304.82 172.3 305.1 172.93 305.38 173.56 305.79 174.04 306.32 174.36 306.85 174.68 307.49 174.84 308.24 174.84L308.34 174.84 308.34 177.63ZM312.55 171.5 303.05 171.5 303.05 169.47 312.55 169.47 312.55 171.5ZM311.64 176.95C310.62 177.42 309.62 177.65 308.64 177.65L308.34 177.65 308.34 174.86 308.64 174.86C309.23 174.86 309.84 174.72 310.47 174.44 311.1 174.16 311.55 173.83 311.84 173.44L314.02 175.22C313.44 175.91 312.65 176.49 311.63 176.96Z" class="MsftOfcThm_Background1_Fill_v2" stroke-width="0" fill="#FFFFFF"/><path d="M322.84 177.64 322.59 177.64C321.03 177.64 319.7 177.24 318.6 176.43 317.5 175.63 316.87 174.43 316.72 172.84L319.79 172.84C319.91 173.55 320.2 174.06 320.65 174.38 321.11 174.69 321.75 174.85 322.58 174.85L322.83 174.85 322.83 177.64ZM322.56 165.96 322.53 165.96C321.94 165.96 321.45 166.07 321.07 166.29 320.69 166.51 320.43 166.77 320.28 167.08 320.14 167.38 320.12 167.66 320.22 167.92 320.36 168.24 320.64 168.47 321.07 168.59 321.5 168.72 322.14 168.84 322.99 168.96 323.9 169.1 324.65 169.24 325.24 169.38 325.83 169.52 326.38 169.77 326.92 170.12 327.46 170.47 327.86 170.95 328.15 171.58 328.59 172.53 328.65 173.47 328.33 174.41 328.01 175.35 327.37 176.12 326.4 176.73 325.43 177.34 324.27 177.64 322.92 177.64L322.84 177.64 322.84 174.85 322.92 174.85C323.5 174.85 323.98 174.74 324.37 174.51 324.76 174.28 325.02 174 325.16 173.67 325.3 173.34 325.3 173.03 325.16 172.74 324.99 172.37 324.67 172.11 324.19 171.95 323.72 171.8 323.01 171.65 322.08 171.52 321.22 171.4 320.5 171.28 319.93 171.14 319.36 171 318.82 170.76 318.32 170.42 317.82 170.08 317.43 169.59 317.18 168.99 316.81 168.06 316.8 167.14 317.15 166.23 317.51 165.32 318.16 164.59 319.12 164.02 320.08 163.45 321.22 163.17 322.54 163.17L322.57 163.17 322.57 165.96ZM324.26 166.37C323.82 166.1 323.26 165.96 322.58 165.96L322.53 165.96 322.53 163.17 322.58 163.17C323.49 163.17 324.36 163.34 325.17 163.67 325.98 164 326.66 164.5 327.2 165.16 327.74 165.82 328.06 166.62 328.17 167.57L325.1 167.57C324.98 167.04 324.7 166.65 324.26 166.38Z" class="MsftOfcThm_Background1_Fill_v2" stroke-width="0" fill="#FFFFFF"/><path d="M392.93 177.52 392.93 158.47 396.74 158.47 396.74 177.52 392.93 177.52ZM407 169.13 394.83 169.13 394.83 165.83 407 165.83 407 169.13ZM405.02 177.52 405.02 158.47 408.83 158.47 408.83 177.52 405.02 177.52Z" class="MsftOfcThm_Background1_Fill_v2" stroke-width="0" fill="#FFFFFF"/><path d="M425.24 174.08C424.58 175.19 423.69 176.06 422.56 176.7 421.43 177.33 420.2 177.65 418.86 177.65 417.52 177.65 416.27 177.33 415.15 176.7 414.03 176.07 413.14 175.2 412.48 174.1 411.82 173 411.49 171.77 411.49 170.42 411.49 169.07 411.82 167.84 412.48 166.74 413.14 165.64 414.03 164.77 415.15 164.14 416.27 163.51 417.5 163.19 418.86 163.19 420.22 163.19 421.43 163.51 422.56 164.14 423.69 164.77 424.58 165.65 425.24 166.76 425.9 167.87 426.23 169.09 426.23 170.43 426.23 171.77 425.9 172.99 425.24 174.1ZM421.92 168.37C421.59 167.78 421.15 167.31 420.61 166.97 420.07 166.63 419.48 166.46 418.86 166.46 418.24 166.46 417.64 166.63 417.09 166.96 416.54 167.29 416.1 167.76 415.78 168.36 415.46 168.96 415.3 169.64 415.3 170.4 415.3 171.16 415.46 171.84 415.78 172.44 416.1 173.04 416.54 173.51 417.09 173.84 417.64 174.17 418.23 174.34 418.86 174.34 419.49 174.34 420.07 174.17 420.61 173.83 421.15 173.49 421.59 173.03 421.92 172.43 422.25 171.84 422.42 171.16 422.42 170.4 422.42 169.64 422.25 168.96 421.92 168.37Z" class="MsftOfcThm_Background1_Fill_v2" stroke-width="0" fill="#FFFFFF"/><path d="M433.74 177.64 433.66 177.64C432.73 177.64 431.89 177.39 431.16 176.89 430.42 176.39 429.84 175.65 429.41 174.67 428.98 173.69 428.76 172.51 428.76 171.14L428.76 163.29 432.57 163.29 432.57 171.14C432.57 172.17 432.74 172.96 433.08 173.51 433.42 174.06 433.95 174.34 434.68 174.34L434.76 174.34 433.74 177.64ZM438.89 173.35C438.56 174.5 437.98 175.51 437.15 176.36 436.32 177.22 435.2 177.64 433.8 177.64L433.72 177.64 434.74 174.34 434.82 174.34C435.73 174.34 436.46 174.12 436.99 173.68 437.52 173.24 437.89 172.7 438.08 172.07 438.27 171.44 438.37 170.79 438.37 170.13L439.39 170.13C439.39 171.13 439.22 172.2 438.89 173.36ZM442.1 163.29 442.1 177.51 438.29 177.51 438.29 163.29 442.1 163.29Z" class="MsftOfcThm_Background1_Fill_v2" stroke-width="0" fill="#FFFFFF"/><path d="M450.86 177.64 450.61 177.64C449.05 177.64 447.72 177.24 446.62 176.43 445.52 175.63 444.89 174.43 444.74 172.84L447.81 172.84C447.93 173.55 448.22 174.06 448.67 174.38 449.13 174.69 449.77 174.85 450.6 174.85L450.85 174.85 450.85 177.64ZM450.59 165.96 450.57 165.96C449.98 165.96 449.49 166.07 449.11 166.29 448.73 166.51 448.47 166.77 448.32 167.08 448.18 167.38 448.15 167.66 448.26 167.92 448.4 168.24 448.68 168.47 449.11 168.59 449.54 168.72 450.18 168.84 451.03 168.96 451.94 169.1 452.69 169.24 453.28 169.38 453.87 169.52 454.42 169.77 454.96 170.12 455.5 170.47 455.9 170.95 456.19 171.58 456.63 172.53 456.69 173.47 456.37 174.41 456.05 175.35 455.4 176.12 454.44 176.73 453.48 177.34 452.31 177.64 450.96 177.64L450.88 177.64 450.88 174.85 450.96 174.85C451.54 174.85 452.02 174.74 452.41 174.51 452.8 174.28 453.06 174 453.2 173.67 453.33 173.34 453.33 173.03 453.2 172.74 453.03 172.37 452.71 172.11 452.23 171.95 451.76 171.8 451.05 171.65 450.12 171.52 449.26 171.4 448.54 171.28 447.97 171.14 447.4 171 446.87 170.76 446.36 170.42 445.85 170.07 445.47 169.59 445.22 168.99 444.85 168.06 444.84 167.14 445.19 166.23 445.55 165.32 446.2 164.59 447.16 164.02 448.12 163.45 449.25 163.17 450.58 163.17L450.6 163.17 450.6 165.96ZM452.29 166.37C451.85 166.1 451.29 165.96 450.61 165.96L450.56 165.96 450.56 163.17 450.61 163.17C451.52 163.17 452.39 163.34 453.2 163.67 454.01 164 454.69 164.5 455.23 165.16 455.77 165.82 456.09 166.62 456.2 167.57L453.13 167.57C453.01 167.04 452.73 166.65 452.29 166.38Z" class="MsftOfcThm_Background1_Fill_v2" stroke-width="0" fill="#FFFFFF"/><path d="M459.86 160.46C459.44 160.1 459.23 159.64 459.23 159.1L459.23 159.02C459.23 158.48 459.44 158.03 459.86 157.66 460.28 157.29 460.8 157.11 461.41 157.11 462.02 157.11 462.54 157.29 462.96 157.66 463.38 158.03 463.59 158.48 463.59 159.02L463.59 159.1C463.59 159.64 463.38 160.09 462.96 160.46 462.54 160.82 462.02 161.01 461.41 161.01 460.8 161.01 460.28 160.83 459.86 160.46ZM459.5 177.52 459.5 163.3 463.31 163.3 463.31 177.52 459.5 177.52Z" class="MsftOfcThm_Background1_Fill_v2" stroke-width="0" fill="#FFFFFF"/><path d="M466.74 177.52 466.74 163.3 470.55 163.3 470.55 177.52 466.74 177.52ZM469.95 167.46C470.28 166.31 470.86 165.31 471.69 164.45 472.52 163.59 473.64 163.17 475.04 163.17L475.12 163.17 474.1 166.47 474.02 166.47C473.11 166.47 472.38 166.69 471.85 167.13 471.32 167.57 470.95 168.11 470.76 168.74 470.57 169.37 470.47 170.02 470.47 170.68L469.45 170.68C469.45 169.68 469.62 168.61 469.95 167.45ZM475.1 163.17 475.18 163.17C476.11 163.17 476.95 163.42 477.68 163.92 478.42 164.42 479 165.16 479.43 166.14 479.86 167.12 480.08 168.3 480.08 169.67L480.08 177.52 476.27 177.52 476.27 169.67C476.27 168.64 476.1 167.85 475.76 167.3 475.42 166.75 474.89 166.47 474.16 166.47L474.08 166.47 475.1 163.17Z" class="MsftOfcThm_Background1_Fill_v2" stroke-width="0" fill="#FFFFFF"/><path d="M485.75 176.79C484.84 176.22 484.12 175.41 483.57 174.34 483.02 173.27 482.74 172.03 482.74 170.61 482.74 169.19 482.99 167.84 483.5 166.71 484.01 165.58 484.72 164.71 485.65 164.09 486.58 163.47 487.63 163.16 488.81 163.16L488.89 163.16 489.65 166.21 489.57 166.21C488.6 166.21 487.86 166.59 487.33 167.35 486.8 168.11 486.54 169.15 486.54 170.47 486.54 171.79 486.81 172.74 487.34 173.48 487.87 174.22 488.57 174.58 489.44 174.58L489.49 174.58 488.73 177.63 488.68 177.63C487.63 177.63 486.65 177.35 485.75 176.78ZM496.56 163.29 496.56 177.08C496.56 178.18 496.29 179.14 495.76 179.96 495.23 180.78 494.47 181.41 493.5 181.85 492.53 182.29 491.4 182.51 490.11 182.51L484.73 182.51 484.73 179.46 490.11 179.46C491.02 179.46 491.69 179.27 492.12 178.89 492.55 178.51 492.75 177.9 492.75 177.07L492.75 163.28 496.56 163.28ZM489.47 174.6 489.55 174.6C490.6 174.6 491.4 174.3 491.96 173.7 492.52 173.1 492.81 172.32 492.85 171.35L493.92 171.55C493.8 173.48 493.31 174.98 492.45 176.05 491.59 177.12 490.37 177.65 488.79 177.65L488.71 177.65 489.47 174.6ZM488.86 163.17 488.94 163.17C490.57 163.17 491.78 163.75 492.58 164.9 493.38 166.05 493.86 167.69 494.02 169.8L492.85 170.05C492.82 168.87 492.55 167.93 492.04 167.24 491.53 166.55 490.75 166.21 489.7 166.21L489.62 166.21 488.86 163.16Z" class="MsftOfcThm_Background1_Fill_v2" stroke-width="0" fill="#FFFFFF"/><path d="M353.73 177.53 353.73 163.31 357.54 163.31 357.54 177.53 353.73 177.53ZM356.94 167.47C357.27 166.32 357.85 165.32 358.68 164.46 359.51 163.6 360.63 163.18 362.03 163.18L362.11 163.18 361.09 166.48 361.01 166.48C360.1 166.48 359.37 166.7 358.84 167.14 358.31 167.58 357.94 168.12 357.75 168.75 357.56 169.38 357.46 170.03 357.46 170.69L356.44 170.69C356.44 169.69 356.61 168.62 356.94 167.46ZM362.08 163.18 362.16 163.18C363.09 163.18 363.92 163.43 364.66 163.93 365.4 164.43 365.98 165.17 366.41 166.15 366.84 167.13 367.06 168.31 367.06 169.68L367.06 177.53 363.25 177.53 363.25 169.68C363.25 168.65 363.08 167.86 362.74 167.31 362.4 166.76 361.87 166.48 361.14 166.48L361.06 166.48 362.08 163.18Z" class="MsftOfcThm_Background1_Fill_v2" stroke-width="0" fill="#FFFFFF"/><path d="M383.57 177.53 379.76 177.53 379.76 157.46 383.57 157.46 383.57 177.53ZM376.71 166.23 376.63 166.23 375.87 163.18 375.95 163.18C377.58 163.18 378.79 163.76 379.6 164.91 380.4 166.06 380.88 167.7 381.03 169.81L379.86 170.06C379.83 168.88 379.56 167.94 379.05 167.25 378.54 166.56 377.76 166.22 376.71 166.22ZM375.8 177.66 375.72 177.66 376.48 174.61 376.56 174.61C377.61 174.61 378.41 174.31 378.97 173.71 379.53 173.11 379.82 172.33 379.86 171.36L380.93 171.56C380.81 173.49 380.32 174.99 379.46 176.06 378.6 177.13 377.38 177.66 375.8 177.66ZM375.75 177.66 375.7 177.66C374.65 177.66 373.67 177.38 372.77 176.81 371.86 176.24 371.14 175.43 370.59 174.36 370.04 173.29 369.76 172.05 369.76 170.63 369.76 169.21 370.01 167.86 370.52 166.73 371.03 165.6 371.74 164.73 372.67 164.11 373.59 163.49 374.65 163.18 375.83 163.18L375.91 163.18 376.67 166.23 376.59 166.23C375.62 166.23 374.88 166.61 374.35 167.37 373.83 168.13 373.56 169.17 373.56 170.49 373.56 171.81 373.83 172.76 374.36 173.5 374.89 174.24 375.59 174.6 376.46 174.6L376.51 174.6 375.75 177.65Z" class="MsftOfcThm_Background1_Fill_v2" stroke-width="0" fill="#FFFFFF"/><path d="M339.84 176.81C338.93 176.24 338.21 175.43 337.66 174.36 337.11 173.29 336.83 172.05 336.83 170.63 336.83 169.21 337.08 167.86 337.59 166.73 338.1 165.6 338.81 164.73 339.74 164.11 340.66 163.49 341.72 163.18 342.9 163.18L342.98 163.18 343.74 166.23 343.66 166.23C342.69 166.23 341.95 166.61 341.42 167.37 340.89 168.13 340.63 169.17 340.63 170.49 340.63 171.81 340.9 172.76 341.43 173.5 341.96 174.24 342.66 174.6 343.53 174.6L343.58 174.6 342.82 177.65 342.77 177.65C341.72 177.65 340.74 177.37 339.84 176.8ZM343.56 174.61 343.64 174.61C344.69 174.61 345.49 174.31 346.05 173.71 346.61 173.11 346.9 172.33 346.94 171.36L348.01 171.56C347.89 173.49 347.4 174.99 346.54 176.06 345.68 177.13 344.46 177.66 342.88 177.66L342.8 177.66 343.56 174.61ZM342.95 163.18 343.03 163.18C344.66 163.18 345.87 163.76 346.68 164.91 347.48 166.06 347.96 167.7 348.11 169.81L346.94 170.06C346.91 168.88 346.64 167.94 346.13 167.25 345.62 166.56 344.84 166.22 343.79 166.22L343.71 166.22 342.95 163.17ZM346.84 177.53 346.84 163.31 350.65 163.31 350.65 177.53 346.84 177.53Z" class="MsftOfcThm_Background1_Fill_v2" stroke-width="0" fill="#FFFFFF"/></g></svg>