<svg viewBox="0 0 138.21 76.65" xmlns="http://www.w3.org/2000/svg" xmlns:xlink="http://www.w3.org/1999/xlink" id="Layer_1" overflow="hidden"><style>
.MsftOfcThm_Background1_Fill_v2 {
 fill:#FFFFFF; 
}
</style>
<defs></defs><path d="M17.51 49.72 16.08 49.72 16.08 50.05C16.08 51.96 15.22 53.52 13.5 54.74 12.02 55.81 10.22 56.34 8.12 56.34 5.82 56.34 3.93 55.75 2.42 54.55 0.89 53.34 0.13 51.67 0.13 49.56L0.13 44.16 3.53 41.81 3.53 48.96C3.53 50.35 4.1 51.36 5.25 52.01 6.04 52.48 6.98 52.72 8.08 52.72 9.25 52.72 10.26 52.46 11.09 51.94 11.95 51.4 12.45 50.65 12.6 49.7L10.2 49.7 10.2 46.13 17.51 46.13 17.51 49.7ZM7.9 59.91C7.9 60.38 7.72 60.8 7.38 61.16 7.03 61.52 6.62 61.7 6.14 61.7 5.66 61.7 5.25 61.52 4.92 61.16 4.59 60.8 4.42 60.38 4.42 59.91 4.42 59.41 4.59 58.99 4.92 58.63 5.25 58.27 5.66 58.09 6.14 58.09 6.62 58.09 7.03 58.27 7.38 58.63 7.73 58.99 7.9 59.42 7.9 59.91M11.91 59.91C11.91 60.38 11.74 60.8 11.39 61.16 11.04 61.52 10.63 61.7 10.15 61.7 9.67 61.7 9.26 61.52 8.93 61.16 8.6 60.8 8.43 60.38 8.43 59.91 8.43 59.41 8.6 58.99 8.93 58.63 9.26 58.27 9.67 58.09 10.15 58.09 10.63 58.09 11.04 58.27 11.39 58.63 11.74 58.99 11.91 59.42 11.91 59.91" class="MsftOfcThm_Background1_Fill_v2" stroke-width="0" fill="#FFFFFF"/><path d="M31.92 49.72 30.24 49.72C29.95 50.69 29.4 51.45 28.59 52.01 27.78 52.57 26.8 52.85 25.65 52.85 24.5 52.85 23.51 52.56 22.68 51.99 21.89 51.44 21.34 50.69 21.03 49.72L17.37 49.72 17.37 46.15 20.81 46.15 20.81 41.98C20.81 40.29 21.36 39.02 22.46 38.15 23.32 37.5 24.38 37.18 25.65 37.18 27.18 37.18 28.4 37.67 29.31 38.63 30.1 39.5 30.49 40.62 30.49 41.98L30.49 46.15 31.92 46.15 31.92 49.72ZM27.08 48.04 27.08 41.98C27.08 41.14 26.6 40.71 25.65 40.71 24.7 40.71 24.22 41.13 24.22 41.98L24.22 48.04C24.22 48.88 24.7 49.31 25.65 49.31 26.6 49.31 27.08 48.89 27.08 48.04" class="MsftOfcThm_Background1_Fill_v2" stroke-width="0" fill="#FFFFFF"/><path d="M39.55 49.72 31.73 49.72 31.73 46.15 34.42 46.15 34.42 42.13C34.42 40.74 34.84 39.6 35.67 38.71 36.51 37.82 37.63 37.37 39.04 37.37L44.13 37.37 44.13 45C44.13 46.51 43.65 47.7 42.7 48.57 41.89 49.34 40.84 49.72 39.55 49.72M38.98 33.68C38.98 34.18 38.81 34.6 38.46 34.97 38.11 35.33 37.7 35.51 37.22 35.51 36.74 35.51 36.33 35.33 36 34.97 35.67 34.61 35.5 34.18 35.5 33.68 35.5 33.18 35.67 32.76 36 32.42 36.33 32.07 36.74 31.9 37.22 31.9 37.7 31.9 38.11 32.07 38.46 32.42 38.81 32.77 38.98 33.19 38.98 33.68M40.7 44.81 40.7 40.94 38.94 40.94C38.22 40.94 37.86 41.37 37.86 42.21L37.86 46.16 39.55 46.16C40.31 46.16 40.7 45.71 40.7 44.82M42.99 33.68C42.99 34.18 42.82 34.6 42.47 34.97 42.12 35.33 41.71 35.51 41.23 35.51 40.75 35.51 40.35 35.33 40.01 34.97 39.68 34.61 39.51 34.18 39.51 33.68 39.51 33.18 39.68 32.76 40.01 32.42 40.34 32.07 40.75 31.9 41.23 31.9 41.71 31.9 42.12 32.07 42.47 32.42 42.82 32.77 42.99 33.19 42.99 33.68" class="MsftOfcThm_Background1_Fill_v2" stroke-width="0" fill="#FFFFFF"/><path d="M48.76 56.23 46.4 52.99C47.55 52.72 48.35 52.3 48.82 51.74 49.29 51.18 49.52 50.37 49.52 49.3L49.52 37.35 52.96 37.35 52.96 46.13 54.4 46.13 54.4 49.7 52.96 49.7 52.96 50.41C52.96 51.8 52.65 52.92 52.03 53.78 51.41 54.64 50.32 55.45 48.77 56.22" class="MsftOfcThm_Background1_Fill_v2" stroke-width="0" fill="#FFFFFF"/><path d="M55.75 49.72 54.21 49.72 54.21 46.15 55.78 46.15C56.54 46.15 56.93 45.74 56.93 44.92L56.93 32.34 60.33 32.34 60.33 44.99C60.33 46.38 59.89 47.52 59 48.41 58.16 49.28 57.08 49.71 55.74 49.71" class="MsftOfcThm_Background1_Fill_v2" stroke-width="0" fill="#FFFFFF"/><path d="M67.11 49.72 63.71 51.58 63.71 32.34 67.11 32.34 67.11 49.72Z" class="MsftOfcThm_Background1_Fill_v2" stroke-width="0" fill="#FFFFFF"/><g><path d="M84.7 48.97 84.7 32.34 88.1 32.34 88.1 49.71C88.1 51.99 87.13 53.74 85.2 54.96 83.74 55.88 82.06 56.34 80.15 56.34 77.81 56.34 75.89 55.73 74.38 54.51 72.9 53.3 72.16 51.66 72.16 49.6L72.16 44.17 75.56 41.83 75.56 48.97C75.56 50.33 76.12 51.35 77.24 52.02 78.05 52.49 79.01 52.73 80.11 52.73 81.43 52.73 82.51 52.41 83.37 51.76 84.25 51.09 84.7 50.16 84.7 48.97" class="MsftOfcThm_Background1_Fill_v2" stroke-width="0" fill="#FFFFFF"/><path d="M102.01 49.72 100.58 49.72 100.58 49.87C100.58 51.93 100.05 53.47 99 54.48 97.93 55.55 96.24 56.13 93.95 56.23L91.76 53.07 92.08 53.07C93.68 53.07 94.93 52.78 95.84 52.22 96.72 51.7 97.17 50.95 97.17 49.98L97.17 49.72 95.52 49.72C94.01 49.72 92.82 49.19 91.94 48.12 91.22 47.25 90.86 46.21 90.86 44.99L90.86 42.12C90.86 40.69 91.33 39.5 92.26 38.59 93.1 37.77 94.18 37.36 95.52 37.36L100.57 37.36 100.57 46.14 102 46.14 102 49.71ZM97.14 46.15 97.14 40.94 95.42 40.94C94.7 40.94 94.34 41.32 94.34 42.09L94.34 44.92C94.34 45.74 94.7 46.15 95.42 46.15L97.14 46.15Z" class="MsftOfcThm_Background1_Fill_v2" stroke-width="0" fill="#FFFFFF"/><path d="M116.24 49.72 101.4 49.72 101.4 46.15 111.4 46.15 111.4 42.13C111.4 41.78 111.3 41.5 111.1 41.27 110.89 41.05 110.63 40.94 110.29 40.94L105.13 40.94 105.13 37.37 110.29 37.37C111.72 37.37 112.86 37.88 113.69 38.9 114.43 39.79 114.8 40.87 114.8 42.14L114.8 46.16 116.23 46.16 116.23 49.73Z" class="MsftOfcThm_Background1_Fill_v2" stroke-width="0" fill="#FFFFFF"/><path d="M125.45 49.72 116.06 49.72 116.06 46.15 120.61 46.15 120.61 37.37 124.05 37.37 124.05 46.15 125.45 46.15 125.45 49.72ZM118.32 35.5C117.84 35.5 117.43 35.32 117.08 34.96 116.73 34.6 116.56 34.17 116.56 33.68 116.56 33.19 116.74 32.76 117.08 32.41 117.43 32.06 117.84 31.89 118.32 31.89 118.8 31.89 119.2 32.06 119.54 32.41 119.87 32.76 120.04 33.18 120.04 33.68 120.04 34.18 119.87 34.6 119.54 34.96 119.21 35.32 118.8 35.5 118.32 35.5M122.33 35.5C121.85 35.5 121.44 35.32 121.09 34.96 120.74 34.6 120.57 34.17 120.57 33.68 120.57 33.19 120.74 32.76 121.09 32.41 121.44 32.06 121.85 31.89 122.33 31.89 122.81 31.89 123.21 32.06 123.55 32.41 123.88 32.76 124.05 33.18 124.05 33.68 124.05 34.18 123.88 34.6 123.55 34.96 123.21 35.32 122.81 35.5 122.33 35.5" class="MsftOfcThm_Background1_Fill_v2" stroke-width="0" fill="#FFFFFF"/><path d="M126.85 49.72 125.31 49.72 125.31 46.15 126.88 46.15C127.64 46.15 128.03 45.74 128.03 44.92L128.03 32.34 131.43 32.34 131.43 44.99C131.43 46.38 130.99 47.52 130.1 48.41 129.26 49.28 128.18 49.71 126.84 49.71" class="MsftOfcThm_Background1_Fill_v2" stroke-width="0" fill="#FFFFFF"/><path d="M138.21 49.72 134.81 51.58 134.81 32.34 138.21 32.34 138.21 49.72Z" class="MsftOfcThm_Background1_Fill_v2" stroke-width="0" fill="#FFFFFF"/></g><path d="M11.11 17.82 6.27 17.82 6.27 15.63 4.62 17.82C3.11 17.82 1.93 17.31 1.07 16.3 0.35 15.43 -6.66134e-16 14.34 -6.66134e-16 13.03L-6.66134e-16 10.24C-6.66134e-16 8.73 0.48 7.53 1.43 6.63 2.24 5.86 3.28 5.48 4.55 5.48L9.67 5.48 9.67 14.26 11.1 14.26 11.1 17.83ZM4.55 1.79C4.55 2.29 4.37 2.71 4.03 3.08 3.68 3.44 3.27 3.62 2.79 3.62 2.31 3.62 1.91 3.44 1.57 3.08 1.23 2.72 1.07 2.29 1.07 1.79 1.07 1.29 1.24 0.87 1.57 0.53 1.91 0.18 2.31 0.01 2.79 0.01 3.27 0.01 3.68 0.18 4.03 0.53 4.38 0.88 4.55 1.3 4.55 1.79M6.27 14.25 6.27 9.04 4.51 9.04C4.18 9.04 3.91 9.16 3.72 9.39 3.53 9.63 3.43 9.93 3.43 10.3L3.43 13.09C3.43 13.86 3.79 14.25 4.5 14.25L6.26 14.25ZM8.57 1.79C8.57 2.29 8.4 2.71 8.05 3.08 7.7 3.44 7.29 3.62 6.81 3.62 6.33 3.62 5.93 3.44 5.59 3.08 5.26 2.72 5.09 2.29 5.09 1.79 5.09 1.29 5.26 0.87 5.59 0.53 5.92 0.18 6.33 0.01 6.81 0.01 7.29 0.01 7.7 0.18 8.05 0.53 8.4 0.88 8.57 1.3 8.57 1.79" class="MsftOfcThm_Background1_Fill_v2" stroke-width="0" fill="#FFFFFF"/><path d="M98.71 17.82 10.97 17.82 10.97 14.25 98.75 14.25C99.51 14.25 99.9 13.84 99.9 13.02L99.9 0.45 103.3 0.45 103.3 13.1C103.3 14.49 102.86 15.63 101.97 16.52 101.13 17.39 100.05 17.82 98.71 17.82" class="MsftOfcThm_Background1_Fill_v2" stroke-width="0" fill="#FFFFFF"/><path d="M111.51 17.82 110.9 17.82C109.56 17.82 108.48 17.3 107.67 16.26 107 15.39 106.67 14.37 106.67 13.21L106.67 0.45 110.07 0.45 110.07 13.07C110.07 13.86 110.45 14.26 111.22 14.26L111.51 14.26 111.51 17.83Z" class="MsftOfcThm_Background1_Fill_v2" stroke-width="0" fill="#FFFFFF"/><path d="M120.51 17.82 111.37 17.82 111.37 14.25 120.65 14.25C121.39 14.25 121.76 13.84 121.76 13.02L121.76 10.3C121.76 9.93 121.66 9.63 121.46 9.39 121.26 9.15 121 9.04 120.69 9.04L114.1 9.04 114.1 5.21C114.1 3.75 114.56 2.57 115.46 1.67 116.3 0.85 117.4 0.44 118.76 0.44L123.53 0.44 123.53 3.46 118.62 3.46C117.52 3.46 116.97 4.03 116.97 5.17L116.97 5.46 120.7 5.46C122.04 5.46 123.14 5.93 124 6.87 124.81 7.76 125.22 8.88 125.22 10.22L125.22 13.08C125.22 14.62 124.72 15.82 123.72 16.69 122.86 17.43 121.79 17.8 120.53 17.8" class="MsftOfcThm_Background1_Fill_v2" stroke-width="0" fill="#FFFFFF"/><path d="M131.58 24.33 129.39 21.17 129.71 21.17C131.33 21.17 132.6 20.88 133.51 20.32 134.37 19.8 134.8 19.05 134.8 18.08L134.8 17.82 133.15 17.82C131.65 17.82 130.45 17.29 129.57 16.22 128.87 15.35 128.53 14.31 128.53 13.09L128.53 10.22C128.53 8.76 128.99 7.58 129.89 6.69 130.73 5.87 131.81 5.46 133.15 5.46L138.2 5.46 138.2 17.93C138.2 20.01 137.69 21.56 136.66 22.58 135.58 23.65 133.89 24.23 131.57 24.33M134.81 14.25 134.81 9.04 133.05 9.04C132.33 9.04 131.97 9.42 131.97 10.19L131.97 13.02C131.97 13.84 132.34 14.25 133.08 14.25L134.8 14.25Z" class="MsftOfcThm_Background1_Fill_v2" stroke-width="0" fill="#FFFFFF"/><path d="M2.43 74.72 0.12 74.72 0.12 68.15 2.34 68.15C3.42 68.15 4.19 68.48 4.66 69.15 5.04 69.68 5.22 70.44 5.22 71.45 5.22 72.7 4.88 73.6 4.21 74.15 3.74 74.53 3.15 74.72 2.43 74.72M1.12 73.86 2.54 73.86C3.02 73.86 3.4 73.68 3.69 73.31 4.03 72.89 4.2 72.27 4.2 71.44 4.2 70.51 3.99 69.83 3.57 69.41 3.29 69.14 2.95 69 2.55 69L1.13 69 1.13 73.86Z" class="MsftOfcThm_Background1_Fill_v2" stroke-width="0" fill="#FFFFFF"/><path d="M7.46 68.53C7.46 68.7 7.4 68.84 7.29 68.96 7.18 69.08 7.04 69.14 6.87 69.14 6.71 69.14 6.57 69.08 6.45 68.96 6.33 68.84 6.27 68.71 6.27 68.56 6.27 68.39 6.33 68.24 6.45 68.12 6.57 68 6.71 67.94 6.87 67.94 7.04 67.94 7.18 68 7.29 68.11 7.4 68.23 7.46 68.36 7.46 68.53M7.8 74.1 7.93 74.63C7.74 74.73 7.49 74.79 7.16 74.79 6.92 74.79 6.74 74.73 6.6 74.6 6.47 74.47 6.4 74.31 6.4 74.1L6.4 70.05 7.34 70.05 7.34 73.88C7.34 74.05 7.41 74.14 7.56 74.14 7.65 74.14 7.73 74.13 7.8 74.11" class="MsftOfcThm_Background1_Fill_v2" stroke-width="0" fill="#FFFFFF"/><path d="M11.89 74.61 11.89 74.2C11.65 74.45 11.43 74.6 11.25 74.68 11.07 74.75 10.8 74.79 10.44 74.79 9.15 74.79 8.5 73.99 8.5 72.39 8.5 70.79 9.28 69.96 10.85 69.96 11.56 69.96 12.22 70.04 12.82 70.2L12.82 74.41C12.82 75.42 12.56 76.08 12.05 76.38 11.74 76.56 11.19 76.65 10.4 76.65 9.71 76.65 9.09 76.52 8.56 76.27L8.74 75.48C9.24 75.74 9.79 75.88 10.41 75.88 10.98 75.88 11.37 75.8 11.56 75.63 11.78 75.45 11.88 75.11 11.88 74.62M11.89 72.46 11.89 70.87C11.55 70.79 11.24 70.74 10.96 70.74 10.51 70.74 10.18 70.82 9.97 70.98 9.65 71.22 9.49 71.68 9.49 72.33 9.49 72.93 9.58 73.36 9.76 73.61 9.94 73.86 10.25 73.99 10.67 73.99 11.47 73.99 11.88 73.48 11.88 72.46" class="MsftOfcThm_Background1_Fill_v2" stroke-width="0" fill="#FFFFFF"/><path d="M15.12 68.53C15.12 68.7 15.06 68.84 14.95 68.96 14.84 69.08 14.7 69.14 14.53 69.14 14.37 69.14 14.23 69.08 14.11 68.96 13.99 68.84 13.93 68.71 13.93 68.56 13.93 68.39 13.99 68.24 14.11 68.12 14.23 68 14.37 67.94 14.53 67.94 14.7 67.94 14.84 68 14.95 68.11 15.06 68.23 15.12 68.36 15.12 68.53M15.46 74.1 15.59 74.63C15.4 74.73 15.15 74.79 14.82 74.79 14.58 74.79 14.4 74.73 14.26 74.6 14.13 74.47 14.06 74.31 14.06 74.1L14.06 70.05 15 70.05 15 73.88C15 74.05 15.07 74.14 15.22 74.14 15.31 74.14 15.39 74.13 15.46 74.11" class="MsftOfcThm_Background1_Fill_v2" stroke-width="0" fill="#FFFFFF"/><path d="M18.47 73.91 18.61 74.61C18.26 74.73 17.92 74.79 17.57 74.79 17.22 74.79 16.97 74.7 16.82 74.52 16.67 74.33 16.6 74.03 16.6 73.6L16.6 70.79 15.85 70.79 16.01 70.05 16.6 70.05 16.6 68.8 17.53 68.49 17.53 70.05 18.5 70.05 18.5 70.79 17.53 70.79 17.53 73.48C17.53 73.7 17.56 73.84 17.62 73.91 17.68 73.98 17.81 74.02 18.01 74.02 18.17 74.02 18.32 73.98 18.47 73.91" class="MsftOfcThm_Background1_Fill_v2" stroke-width="0" fill="#FFFFFF"/><path d="M23.44 74.1 23.55 74.64C23.34 74.74 23.09 74.79 22.8 74.79 22.57 74.79 22.38 74.73 22.24 74.61 22.1 74.49 22.03 74.32 22.03 74.12 21.77 74.57 21.32 74.79 20.68 74.79 19.69 74.79 19.19 74.33 19.19 73.43 19.19 72.83 19.43 72.39 19.91 72.12 20.26 71.92 20.71 71.82 21.27 71.82 21.48 71.82 21.73 71.84 22.03 71.88L22.03 71.45C22.03 71.18 21.95 71 21.78 70.9 21.62 70.8 21.32 70.74 20.9 70.74 20.43 70.74 19.97 70.82 19.52 71L19.68 70.22C20.11 70.05 20.61 69.97 21.17 69.97 21.84 69.97 22.3 70.1 22.56 70.38 22.82 70.64 22.95 71.08 22.95 71.7L22.95 73.88C22.95 74.05 23.03 74.14 23.19 74.14 23.29 74.14 23.37 74.13 23.43 74.11M22.04 73 22.04 72.53C21.73 72.5 21.51 72.49 21.36 72.49 20.95 72.49 20.65 72.56 20.46 72.69 20.27 72.82 20.18 73.03 20.18 73.32 20.18 73.78 20.45 74.01 21.01 74.01 21.3 74.01 21.54 73.91 21.74 73.72 21.94 73.53 22.04 73.28 22.04 72.99" class="MsftOfcThm_Background1_Fill_v2" stroke-width="0" fill="#FFFFFF"/><path d="M25.68 74.1 25.79 74.63C25.61 74.73 25.36 74.79 25.03 74.79 24.79 74.79 24.61 74.73 24.47 74.6 24.33 74.47 24.26 74.31 24.26 74.1L24.26 68.15 25.2 68.15 25.2 73.88C25.2 74.05 25.28 74.14 25.42 74.14 25.52 74.14 25.61 74.13 25.68 74.11" class="MsftOfcThm_Background1_Fill_v2" stroke-width="0" fill="#FFFFFF"/><path d="M30.66 74.72 29.67 74.72 29.67 69 28.03 69 28.03 68.15 32.42 68.15 32.3 69 30.66 69 30.66 74.72Z" class="MsftOfcThm_Background1_Fill_v2" stroke-width="0" fill="#FFFFFF"/><path d="M33.61 74.72 32.67 74.72 32.67 70.05 33.61 70.05 33.61 70.66C33.69 70.45 33.82 70.28 33.98 70.16 34.15 70.03 34.31 69.97 34.48 69.97 34.76 69.97 35.05 70.05 35.35 70.22L35.18 71C34.9 70.91 34.64 70.86 34.4 70.86 34.09 70.86 33.83 71.07 33.6 71.48L33.6 74.73Z" class="MsftOfcThm_Background1_Fill_v2" stroke-width="0" fill="#FFFFFF"/><path d="M40.02 74.1 40.13 74.64C39.92 74.74 39.67 74.79 39.38 74.79 39.15 74.79 38.96 74.73 38.82 74.61 38.68 74.49 38.61 74.32 38.61 74.12 38.35 74.57 37.9 74.79 37.26 74.79 36.27 74.79 35.77 74.33 35.77 73.43 35.77 72.83 36.01 72.39 36.49 72.12 36.84 71.92 37.29 71.82 37.85 71.82 38.06 71.82 38.31 71.84 38.61 71.88L38.61 71.45C38.61 71.18 38.53 71 38.36 70.9 38.2 70.8 37.9 70.74 37.48 70.74 37.01 70.74 36.55 70.82 36.1 71L36.26 70.22C36.69 70.05 37.19 69.97 37.75 69.97 38.42 69.97 38.88 70.1 39.14 70.38 39.4 70.64 39.53 71.08 39.53 71.7L39.53 73.88C39.53 74.05 39.61 74.14 39.77 74.14 39.87 74.14 39.95 74.13 40.01 74.11M38.61 73 38.61 72.53C38.3 72.5 38.08 72.49 37.93 72.49 37.52 72.49 37.22 72.56 37.03 72.69 36.84 72.82 36.75 73.03 36.75 73.32 36.75 73.78 37.02 74.01 37.58 74.01 37.87 74.01 38.11 73.91 38.31 73.72 38.51 73.53 38.61 73.28 38.61 72.99" class="MsftOfcThm_Background1_Fill_v2" stroke-width="0" fill="#FFFFFF"/><path d="M45.27 74.1 45.38 74.63C45.19 74.73 44.94 74.79 44.62 74.79 44.39 74.79 44.2 74.73 44.06 74.61 43.92 74.49 43.85 74.32 43.85 74.1L43.85 71.57C43.85 71.28 43.81 71.08 43.72 70.98 43.64 70.88 43.48 70.83 43.25 70.83 43.04 70.83 42.78 70.9 42.48 71.03 42.18 71.16 41.93 71.32 41.73 71.51L41.73 74.73 40.79 74.73 40.79 70.06 41.73 70.06 41.73 70.68C41.95 70.48 42.21 70.32 42.53 70.18 42.85 70.05 43.14 69.98 43.39 69.98 43.91 69.98 44.26 70.08 44.46 70.29 44.67 70.52 44.78 70.93 44.78 71.5L44.78 73.89C44.78 74.06 44.85 74.15 45 74.15 45.1 74.15 45.19 74.14 45.25 74.12" class="MsftOfcThm_Background1_Fill_v2" stroke-width="0" fill="#FFFFFF"/><path d="M45.89 74.58 46.1 73.76C46.26 73.83 46.46 73.9 46.71 73.96 46.96 74.02 47.16 74.04 47.32 74.04 48.07 74.04 48.44 73.82 48.44 73.37 48.44 73.22 48.37 73.09 48.24 72.99 48.11 72.89 47.85 72.77 47.47 72.63 46.97 72.44 46.63 72.27 46.44 72.11 46.16 71.89 46.02 71.6 46.02 71.25 46.02 70.84 46.18 70.52 46.5 70.29 46.82 70.06 47.27 69.95 47.86 69.95 48.37 69.95 48.82 70.03 49.18 70.19L49.02 70.95C48.66 70.78 48.27 70.7 47.88 70.7 47.25 70.7 46.94 70.86 46.94 71.19 46.94 71.31 47 71.41 47.12 71.5 47.24 71.58 47.47 71.69 47.81 71.82 48.34 72.02 48.7 72.2 48.91 72.37 49.21 72.63 49.36 72.95 49.36 73.36 49.36 73.82 49.16 74.18 48.74 74.44 48.39 74.67 47.97 74.78 47.47 74.78 46.84 74.78 46.31 74.71 45.87 74.57" class="MsftOfcThm_Background1_Fill_v2" stroke-width="0" fill="#FFFFFF"/><path d="M51.5 74.72 50.57 74.72 50.57 70.79 49.82 70.79 49.98 70.05 50.57 70.05 50.57 69.39C50.57 68.86 50.65 68.49 50.82 68.28 51.02 68.02 51.36 67.89 51.86 67.89 52.24 67.89 52.56 67.94 52.83 68.05L52.66 68.82C52.38 68.74 52.17 68.71 52.03 68.71 51.81 68.71 51.67 68.74 51.6 68.82 51.53 68.89 51.49 69.05 51.49 69.27L51.49 70.06 52.5 70.06 52.5 70.8 51.49 70.8 51.49 74.73Z" class="MsftOfcThm_Background1_Fill_v2" stroke-width="0" fill="#FFFFFF"/><path d="M55.31 74.79C53.8 74.79 53.04 73.99 53.04 72.4 53.04 70.81 53.8 69.96 55.31 69.96 56.82 69.96 57.57 70.77 57.57 72.4 57.57 74.03 56.82 74.79 55.31 74.79M55.31 74.07C55.76 74.07 56.08 73.95 56.27 73.72 56.48 73.46 56.59 73.02 56.59 72.4 56.59 71.78 56.49 71.35 56.29 71.08 56.09 70.81 55.76 70.68 55.31 70.68 54.86 70.68 54.54 70.8 54.35 71.05 54.14 71.32 54.04 71.77 54.04 72.4 54.04 73.03 54.14 73.44 54.33 73.69 54.52 73.94 54.85 74.07 55.31 74.07" class="MsftOfcThm_Background1_Fill_v2" stroke-width="0" fill="#FFFFFF"/><path d="M59.6 74.72 58.66 74.72 58.66 70.05 59.6 70.05 59.6 70.66C59.68 70.45 59.81 70.28 59.97 70.16 60.14 70.03 60.3 69.97 60.47 69.97 60.75 69.97 61.04 70.05 61.34 70.22L61.17 71C60.89 70.91 60.63 70.86 60.39 70.86 60.08 70.86 59.82 71.07 59.59 71.48L59.59 74.73Z" class="MsftOfcThm_Background1_Fill_v2" stroke-width="0" fill="#FFFFFF"/><path d="M69.4 74.1 69.51 74.63C69.32 74.73 69.07 74.79 68.75 74.79 68.52 74.79 68.33 74.73 68.19 74.61 68.05 74.49 67.98 74.32 67.98 74.1L67.98 71.57C67.98 71.29 67.94 71.09 67.86 70.99 67.78 70.88 67.64 70.83 67.45 70.83 67.24 70.83 67 70.89 66.71 71.02 66.42 71.15 66.18 71.3 65.98 71.48L65.98 74.73 65.05 74.73 65.05 71.57C65.05 71.3 65.01 71.11 64.93 70.99 64.85 70.88 64.71 70.82 64.51 70.82 64.31 70.82 64.06 70.89 63.77 71.02 63.48 71.15 63.24 71.31 63.05 71.5L63.05 74.72 62.11 74.72 62.11 70.05 63.05 70.05 63.05 70.67C63.64 70.2 64.16 69.97 64.62 69.97 64.98 69.97 65.25 70.03 65.45 70.15 65.65 70.27 65.79 70.46 65.87 70.73 66.07 70.51 66.32 70.33 66.64 70.19 66.96 70.05 67.26 69.97 67.54 69.97 68.04 69.97 68.38 70.07 68.58 70.28 68.79 70.49 68.89 70.88 68.89 71.42L68.89 73.88C68.89 74.05 68.96 74.14 69.11 74.14 69.22 74.14 69.31 74.13 69.38 74.11" class="MsftOfcThm_Background1_Fill_v2" stroke-width="0" fill="#FFFFFF"/><path d="M74.2 74.1 74.31 74.64C74.1 74.74 73.85 74.79 73.56 74.79 73.33 74.79 73.14 74.73 73 74.61 72.86 74.49 72.79 74.32 72.79 74.12 72.53 74.57 72.08 74.79 71.44 74.79 70.45 74.79 69.95 74.33 69.95 73.43 69.95 72.83 70.19 72.39 70.67 72.12 71.02 71.92 71.47 71.82 72.03 71.82 72.24 71.82 72.49 71.84 72.79 71.88L72.79 71.45C72.79 71.18 72.71 71 72.54 70.9 72.38 70.8 72.08 70.74 71.66 70.74 71.19 70.74 70.73 70.82 70.28 71L70.44 70.22C70.87 70.05 71.37 69.97 71.93 69.97 72.6 69.97 73.06 70.1 73.32 70.38 73.58 70.64 73.71 71.08 73.71 71.7L73.71 73.88C73.71 74.05 73.79 74.14 73.95 74.14 74.05 74.14 74.13 74.13 74.19 74.11M72.8 73 72.8 72.53C72.49 72.5 72.27 72.49 72.12 72.49 71.71 72.49 71.41 72.56 71.22 72.69 71.03 72.82 70.94 73.03 70.94 73.32 70.94 73.78 71.21 74.01 71.77 74.01 72.06 74.01 72.3 73.91 72.5 73.72 72.7 73.53 72.8 73.28 72.8 72.99" class="MsftOfcThm_Background1_Fill_v2" stroke-width="0" fill="#FFFFFF"/><path d="M77.17 73.91 77.31 74.61C76.96 74.73 76.62 74.79 76.27 74.79 75.92 74.79 75.67 74.7 75.52 74.52 75.37 74.33 75.3 74.03 75.3 73.6L75.3 70.79 74.55 70.79 74.71 70.05 75.3 70.05 75.3 68.8 76.23 68.49 76.23 70.05 77.2 70.05 77.2 70.79 76.23 70.79 76.23 73.48C76.23 73.7 76.26 73.84 76.32 73.91 76.38 73.98 76.51 74.02 76.71 74.02 76.87 74.02 77.02 73.98 77.17 73.91" class="MsftOfcThm_Background1_Fill_v2" stroke-width="0" fill="#FFFFFF"/><path d="M79.22 68.53C79.22 68.7 79.16 68.84 79.05 68.96 78.94 69.08 78.8 69.14 78.63 69.14 78.47 69.14 78.33 69.08 78.21 68.96 78.09 68.84 78.03 68.71 78.03 68.56 78.03 68.39 78.09 68.24 78.21 68.12 78.33 68 78.47 67.94 78.63 67.94 78.8 67.94 78.94 68 79.05 68.11 79.16 68.23 79.22 68.36 79.22 68.53M79.56 74.1 79.69 74.63C79.5 74.73 79.25 74.79 78.92 74.79 78.68 74.79 78.5 74.73 78.36 74.6 78.23 74.47 78.16 74.31 78.16 74.1L78.16 70.05 79.1 70.05 79.1 73.88C79.1 74.05 79.17 74.14 79.33 74.14 79.42 74.14 79.5 74.13 79.57 74.11" class="MsftOfcThm_Background1_Fill_v2" stroke-width="0" fill="#FFFFFF"/><path d="M82.53 74.79C81.02 74.79 80.26 73.99 80.26 72.4 80.26 70.81 81.02 69.96 82.53 69.96 84.04 69.96 84.79 70.77 84.79 72.4 84.79 74.03 84.04 74.79 82.53 74.79M82.53 74.07C82.98 74.07 83.3 73.95 83.49 73.72 83.7 73.46 83.81 73.02 83.81 72.4 83.81 71.78 83.71 71.35 83.51 71.08 83.31 70.81 82.98 70.68 82.53 70.68 82.08 70.68 81.76 70.8 81.57 71.05 81.36 71.32 81.26 71.77 81.26 72.4 81.26 73.03 81.36 73.44 81.55 73.69 81.74 73.94 82.07 74.07 82.53 74.07" class="MsftOfcThm_Background1_Fill_v2" stroke-width="0" fill="#FFFFFF"/><path d="M90.34 74.1 90.45 74.63C90.26 74.73 90.01 74.79 89.69 74.79 89.46 74.79 89.27 74.73 89.13 74.61 88.99 74.49 88.92 74.32 88.92 74.1L88.92 71.57C88.92 71.28 88.88 71.08 88.79 70.98 88.71 70.88 88.55 70.83 88.32 70.83 88.11 70.83 87.85 70.9 87.55 71.03 87.25 71.16 87 71.32 86.8 71.51L86.8 74.73 85.86 74.73 85.86 70.06 86.8 70.06 86.8 70.68C87.02 70.48 87.28 70.32 87.6 70.18 87.92 70.05 88.21 69.98 88.46 69.98 88.98 69.98 89.33 70.08 89.53 70.29 89.74 70.52 89.85 70.93 89.85 71.5L89.85 73.89C89.85 74.06 89.92 74.15 90.07 74.15 90.17 74.15 90.26 74.14 90.32 74.12" class="MsftOfcThm_Background1_Fill_v2" stroke-width="0" fill="#FFFFFF"/><path d="M95.1 74.72 92.79 74.72 92.79 68.15 95.01 68.15C96.09 68.15 96.86 68.48 97.33 69.15 97.71 69.68 97.89 70.44 97.89 71.45 97.89 72.7 97.55 73.6 96.88 74.15 96.41 74.53 95.82 74.72 95.1 74.72M93.79 73.86 95.21 73.86C95.69 73.86 96.07 73.68 96.36 73.31 96.7 72.89 96.87 72.27 96.87 71.44 96.87 70.51 96.66 69.83 96.24 69.41 95.96 69.14 95.62 69 95.22 69L93.8 69 93.8 73.86Z" class="MsftOfcThm_Background1_Fill_v2" stroke-width="0" fill="#FFFFFF"/><path d="M102.88 73.75 102.7 74.57C102.3 74.72 101.79 74.79 101.18 74.79 100.27 74.79 99.64 74.54 99.28 74.02 99.03 73.65 98.9 73.14 98.9 72.47 98.9 71.76 99.06 71.18 99.37 70.74 99.73 70.22 100.29 69.97 101.03 69.97 101.77 69.97 102.34 70.21 102.68 70.7 102.92 71.05 103.05 71.49 103.05 72.04 103.05 72.23 103.03 72.43 103.01 72.63L99.92 72.63C99.92 73.19 100.05 73.59 100.32 73.81 100.55 73.99 100.88 74.08 101.31 74.08 101.94 74.08 102.47 73.97 102.9 73.75M99.9 71.98 102.16 71.98C102.17 71.91 102.17 71.85 102.17 71.8 102.17 71.44 102.07 71.16 101.87 70.97 101.67 70.77 101.38 70.67 101.02 70.67 100.32 70.67 99.94 71.11 99.9 71.98" class="MsftOfcThm_Background1_Fill_v2" stroke-width="0" fill="#FFFFFF"/><path d="M105.02 76.58 104.08 76.58 104.08 70.05 105.02 70.05 105.02 70.67C105.38 70.2 105.9 69.97 106.56 69.97 107.12 69.97 107.55 70.16 107.87 70.55 108.22 70.96 108.39 71.57 108.39 72.38 108.39 73.19 108.2 73.75 107.82 74.18 107.46 74.59 106.96 74.8 106.32 74.8 106.07 74.8 105.82 74.77 105.58 74.69 105.33 74.62 105.15 74.53 105.02 74.42L105.02 76.59ZM105.02 72 105.02 73.58C105.14 73.7 105.31 73.8 105.53 73.89 105.75 73.98 105.94 74.02 106.12 74.02 106.6 74.02 106.94 73.9 107.13 73.66 107.33 73.42 107.43 73 107.43 72.42 107.43 71.84 107.33 71.38 107.15 71.14 106.97 70.92 106.68 70.8 106.28 70.8 105.88 70.8 105.55 70.95 105.31 71.24 105.12 71.46 105.03 71.72 105.03 72.01" class="MsftOfcThm_Background1_Fill_v2" stroke-width="0" fill="#FFFFFF"/><path d="M113.88 74.1 113.98 74.63C113.79 74.73 113.54 74.79 113.23 74.79 112.99 74.79 112.81 74.73 112.67 74.6 112.53 74.47 112.46 74.31 112.46 74.1 112.24 74.31 111.98 74.48 111.69 74.6 111.4 74.73 111.13 74.79 110.89 74.79 110.38 74.79 110.01 74.69 109.81 74.48 109.59 74.24 109.49 73.84 109.49 73.27L109.49 70.05 110.43 70.05 110.43 73.17C110.43 73.47 110.47 73.67 110.55 73.78 110.63 73.88 110.79 73.93 111.02 73.93 111.25 73.93 111.52 73.86 111.83 73.73 112.13 73.59 112.35 73.44 112.47 73.27L112.47 70.05 113.4 70.05 113.4 73.88C113.4 74.05 113.48 74.14 113.64 74.14 113.74 74.14 113.83 74.13 113.89 74.11" class="MsftOfcThm_Background1_Fill_v2" stroke-width="0" fill="#FFFFFF"/><path d="M116.83 73.91 116.97 74.61C116.62 74.73 116.28 74.79 115.93 74.79 115.58 74.79 115.33 74.7 115.18 74.52 115.03 74.33 114.96 74.03 114.96 73.6L114.96 70.79 114.21 70.79 114.37 70.05 114.96 70.05 114.96 68.8 115.89 68.49 115.89 70.05 116.86 70.05 116.86 70.79 115.89 70.79 115.89 73.48C115.89 73.7 115.92 73.84 115.98 73.91 116.04 73.98 116.17 74.02 116.37 74.02 116.53 74.02 116.68 73.98 116.83 73.91" class="MsftOfcThm_Background1_Fill_v2" stroke-width="0" fill="#FFFFFF"/><path d="M119.08 74.61 117.31 70.05 118.31 70.05 119.52 73.4 120.53 70.05 121.54 70.05 119.87 74.89C119.64 75.56 119.4 76.02 119.14 76.27 118.88 76.52 118.53 76.65 118.09 76.65 117.65 76.65 117.34 76.59 117.12 76.48L117.3 75.69C117.55 75.78 117.81 75.83 118.07 75.83 118.27 75.83 118.43 75.77 118.56 75.65 118.74 75.46 118.91 75.12 119.07 74.61" class="MsftOfcThm_Background1_Fill_v2" stroke-width="0" fill="#FFFFFF"/><path d="M121.95 74.58 122.16 73.76C122.32 73.83 122.52 73.9 122.77 73.96 123.02 74.02 123.22 74.04 123.38 74.04 124.13 74.04 124.5 73.82 124.5 73.37 124.5 73.22 124.43 73.09 124.3 72.99 124.17 72.89 123.91 72.77 123.53 72.63 123.03 72.44 122.69 72.27 122.5 72.11 122.22 71.89 122.08 71.6 122.08 71.25 122.08 70.84 122.24 70.52 122.56 70.29 122.88 70.06 123.33 69.95 123.92 69.95 124.43 69.95 124.88 70.03 125.24 70.19L125.08 70.95C124.72 70.78 124.34 70.7 123.94 70.7 123.31 70.7 123 70.86 123 71.19 123 71.31 123.06 71.41 123.18 71.5 123.3 71.58 123.53 71.69 123.88 71.82 124.41 72.02 124.77 72.2 124.98 72.37 125.28 72.63 125.43 72.95 125.43 73.36 125.43 73.82 125.22 74.18 124.81 74.44 124.46 74.67 124.04 74.78 123.54 74.78 122.91 74.78 122.38 74.71 121.94 74.57" class="MsftOfcThm_Background1_Fill_v2" stroke-width="0" fill="#FFFFFF"/><path d="M130.84 74.1 130.95 74.63C130.76 74.73 130.51 74.79 130.19 74.79 129.96 74.79 129.77 74.73 129.63 74.61 129.49 74.49 129.42 74.32 129.42 74.1L129.42 71.57C129.42 71.28 129.38 71.08 129.29 70.98 129.21 70.88 129.05 70.83 128.82 70.83 128.61 70.83 128.35 70.9 128.05 71.03 127.75 71.16 127.5 71.32 127.3 71.51L127.3 74.73 126.36 74.73 126.36 68.15 127.3 68.15 127.3 70.67C127.52 70.47 127.78 70.31 128.1 70.17 128.42 70.04 128.71 69.97 128.96 69.97 129.48 69.97 129.83 70.07 130.03 70.28 130.24 70.51 130.35 70.92 130.35 71.49L130.35 73.88C130.35 74.05 130.42 74.14 130.57 74.14 130.67 74.14 130.76 74.13 130.82 74.11" class="MsftOfcThm_Background1_Fill_v2" stroke-width="0" fill="#FFFFFF"/><path d="M132.73 68.53C132.73 68.7 132.67 68.84 132.56 68.96 132.45 69.08 132.31 69.14 132.14 69.14 131.98 69.14 131.84 69.08 131.72 68.96 131.6 68.84 131.54 68.71 131.54 68.56 131.54 68.39 131.6 68.24 131.72 68.12 131.84 68 131.98 67.94 132.14 67.94 132.31 67.94 132.45 68 132.56 68.11 132.67 68.23 132.73 68.36 132.73 68.53M133.07 74.1 133.2 74.63C133.01 74.73 132.76 74.79 132.43 74.79 132.19 74.79 132.01 74.73 131.87 74.6 131.74 74.47 131.67 74.31 131.67 74.1L131.67 70.05 132.61 70.05 132.61 73.88C132.61 74.05 132.68 74.14 132.84 74.14 132.93 74.14 133.01 74.13 133.08 74.11" class="MsftOfcThm_Background1_Fill_v2" stroke-width="0" fill="#FFFFFF"/><path d="M134.84 76.58 133.9 76.58 133.9 70.05 134.84 70.05 134.84 70.67C135.2 70.2 135.72 69.97 136.38 69.97 136.94 69.97 137.37 70.16 137.69 70.55 138.04 70.96 138.21 71.57 138.21 72.38 138.21 73.19 138.02 73.75 137.64 74.18 137.28 74.59 136.78 74.8 136.14 74.8 135.89 74.8 135.64 74.77 135.4 74.69 135.15 74.62 134.97 74.53 134.84 74.42L134.84 76.59ZM134.84 72 134.84 73.58C134.96 73.7 135.13 73.8 135.35 73.89 135.57 73.98 135.76 74.02 135.94 74.02 136.42 74.02 136.76 73.9 136.95 73.66 137.15 73.42 137.25 73 137.25 72.42 137.25 71.84 137.15 71.38 136.97 71.14 136.79 70.92 136.5 70.8 136.1 70.8 135.7 70.8 135.37 70.95 135.13 71.24 134.94 71.46 134.85 71.72 134.85 72.01" class="MsftOfcThm_Background1_Fill_v2" stroke-width="0" fill="#FFFFFF"/></svg>