<svg width="560" height="1160" viewBox="0 0 560 1160" fill="none" xmlns="http://www.w3.org/2000/svg">
  <g stroke="#DCE8B8" stroke-width="8" stroke-linecap="round" stroke-linejoin="round">
    <path d="M-42 38L82 110C102 121 114 142 114 165V304C114 326 102 346 82 357L-42 429" />
    <path d="M-38 443C72 443 162 533 162 643V698C162 750 134 798 88 824L66 836C49 846 39 864 39 883C39 912 68 932 95 924L177 878L140 745C136 728 146 711 163 706L285 676L136 421L202 354" />
    <path d="M149 928L221 1000C236 1015 258 1022 278 1017L385 988C405 982 420 966 425 946L450 840C454 822 449 802 435 789L360 715" />
    <path d="M237 174L388 210C407 214 422 229 426 248L460 394C464 414 458 434 444 448L374 518H473C491 518 507 528 516 544L564 628C573 644 573 664 564 680L516 764C507 780 491 790 473 790H374L444 860C458 874 464 894 460 914L426 1060C422 1079 407 1094 388 1098L237 1134C218 1138 198 1132 184 1118L114 1048V956C114 934 102 914 82 903L-42 831" />
    <path d="M156 290L244 202C253 193 267 189 280 192L363 211C376 214 386 224 389 237L408 323C411 336 407 349 397 359L328 428C319 437 305 441 292 438L209 419C196 416 186 406 183 393L164 307C161 304 160 297 156 290Z" />
    <path d="M327 565H447C458 565 469 571 474 581L516 654C521 663 521 675 516 684L474 757C469 767 458 773 447 773H337C326 773 315 767 310 757L268 684C263 675 263 663 268 654L310 581C315 571 326 565 337 565H327Z" />
    <path d="M190 855L309 825L393 907L362 1027L245 1058L158 973L190 855Z" />
    <path d="M-39 616C23 616 73 666 73 728C73 779 39 822 -10 835" />
  </g>
</svg>
